<svg xmlns="http://www.w3.org/2000/svg" xmlns:xlink="http://www.w3.org/1999/xlink" viewBox="0 0 136.37 94.88"><defs><style>.cls-1,.cls-11,.cls-3{fill:none;}.cls-2{isolation:isolate;}.cls-11,.cls-12,.cls-3,.cls-6,.cls-7,.cls-9{stroke:#1d1d1b;stroke-miterlimit:10;}.cls-11,.cls-3{stroke-linecap:round;}.cls-3,.cls-6,.cls-9{stroke-width:1.91px;}.cls-4{fill:#ff6328;}.cls-12,.cls-5{fill:#1d1d1b;}.cls-6{fill:#fbc44d;}.cls-7{fill:#f7eacd;}.cls-11,.cls-7{stroke-width:1.34px;}.cls-8{fill:#ffda80;}.cls-10,.cls-8{opacity:0.5;mix-blend-mode:multiply;}.cls-10,.cls-9{fill:#706f6f;}.cls-12{stroke-width:0.29px;}.cls-13{fill:#f6f6f6;}.cls-14{clip-path:url(#clip-path);}</style><clipPath id="clip-path"><rect class="cls-1" x="-901.61" y="-546.3" width="750" height="1334.03"/></clipPath></defs><title>48-58</title><g class="cls-2"><g id="web6"><polyline class="cls-3" points="4.38 89.67 29.3 89.67 33.27 89.67 105.17 89.67 109.42 89.67 131.99 89.67"/><path class="cls-4" d="M66.59,19V10.57a3.27,3.27,0,1,1,3.2,0V19Z"/><path class="cls-5" d="M68.19,5.21A2.5,2.5,0,0,1,69,10.08v8.17H67.35V10.08a2.51,2.51,0,0,1,.84-4.87m0-1.53A4,4,0,0,0,65.82,11v8.8h4.73V11a4,4,0,0,0-2.36-7.3Z"/><path class="cls-6" d="M104.52,52.43a36.34,36.34,0,1,0-72.67,0c0,.27,0,.54,0,.8h0V68.35A14.55,14.55,0,0,0,46.41,82.9H90a14.54,14.54,0,0,0,14.55-14.55V53.23h0C104.52,53,104.52,52.7,104.52,52.43Z"/><path class="cls-7" d="M93,58.47H43.78c-7.14-.69-6.22-9.26-6.22-9.26h0c0-15.48,14.15-28,31.44-27.57C85.65,22,98.81,34.51,98.81,49.51v.05S99.61,58.47,93,58.47Z"/><path class="cls-8" d="M104.67,53.23h0V68.35A14.54,14.54,0,0,1,90.13,82.9H75.74A14.55,14.55,0,0,0,90.3,68.35V53.23h0c0-.26,0-.53,0-.8A36.34,36.34,0,0,0,61.16,16.81a36.32,36.32,0,0,1,43.52,35.62C104.68,52.7,104.68,53,104.67,53.23Z"/><rect class="cls-9" x="101.25" y="58.47" width="14.26" height="31.2" rx="7.13" ry="7.13"/><path class="cls-10" d="M115.51,65.61V82.54a7.13,7.13,0,0,1-9.9,6.57A7.16,7.16,0,0,0,110,82.54V65.61A7.18,7.18,0,0,0,105.61,59a7.14,7.14,0,0,1,9.9,6.58Z"/><rect class="cls-9" x="21.13" y="58.47" width="14.26" height="31.2" rx="7.13" ry="7.13"/><path class="cls-10" d="M35.39,65.61V82.54a7.13,7.13,0,0,1-9.9,6.57,7.16,7.16,0,0,0,4.36-6.57V65.61a7.1,7.1,0,0,0-2.09-5A7.24,7.24,0,0,0,25.49,59a7.14,7.14,0,0,1,9.9,6.58Z"/><path class="cls-11" d="M65.54,47s.62,2.64,2.6,2.64S70.82,47,70.82,47"/><ellipse class="cls-12" cx="85.88" cy="42.14" rx="1.51" ry="2.42"/><circle class="cls-13" cx="86.16" cy="40.6" r="0.55"/><ellipse class="cls-12" cx="50.48" cy="42.14" rx="1.51" ry="2.42"/><circle class="cls-13" cx="50.76" cy="40.6" r="0.55"/><polyline class="cls-11" points="92.93 62.66 77.3 62.66 72.91 67.81"/><polyline class="cls-11" points="43.8 62.66 59.42 62.66 63.81 67.81"/></g><g id="screen7"><g class="cls-14"><rect class="cls-13" x="-1462.93" y="-546.3" width="1922.99" height="1331.56"/></g></g></g></svg>