<svg xmlns="http://www.w3.org/2000/svg" xmlns:xlink="http://www.w3.org/1999/xlink" viewBox="0 0 192 204"><defs><style>.cls-1{fill:none;}.cls-2{clip-path:url(#clip-path);}.cls-3{fill:#14c6c6;}.cls-4{fill:#1d1d1b;}.cls-5{fill:#fbc44d;}.cls-6{fill:#fff;}.cls-7{fill:#fbb032;}.cls-8{fill:#1d1a12;}.cls-9{fill:#07a7a7;}.cls-10{fill:#0a1917;}.cls-11{fill:#e5e5e5;}.cls-12{fill:#1a1a18;}</style><clipPath id="clip-path"><rect class="cls-1" x="-558" y="-562.28" width="750" height="1334.03"/></clipPath></defs><title>otoboto-images</title><g id="APP"><path class="cls-3" d="M154.52,93.38l-1.7-.06-.48-.82a33.75,33.75,0,0,0-30.83-19H97.73C86.08,73.47,78,77.6,69.1,85.12l-9.76,8.26H53.9a22.43,22.43,0,0,0-22.44,22.44A2.52,2.52,0,0,0,34,118.33H163.13a2.52,2.52,0,0,0,2.51-2.51V104.5a11.15,11.15,0,0,0-11.12-11.12"/><path class="cls-4" d="M154.52,93.38l0-1-1.16,0-.2-.35-.86.51.9-.43a34.74,34.74,0,0,0-31.73-19.6H97.73A38.92,38.92,0,0,0,82,75.55a54.43,54.43,0,0,0-13.53,8.81l-9.47,8H53.9a23.43,23.43,0,0,0-23.44,23.44A3.51,3.51,0,0,0,34,119.33H163.13a3.51,3.51,0,0,0,3.51-3.51V104.5a12.14,12.14,0,0,0-12.12-12.12v1l0-1,0,1v1a10.14,10.14,0,0,1,10.12,10.12v11.32a1.5,1.5,0,0,1-.44,1.07,1.53,1.53,0,0,1-1.07.44H34a1.5,1.5,0,0,1-1.51-1.51A21.44,21.44,0,0,1,53.9,94.38h5.81l10-8.49a52.32,52.32,0,0,1,13-8.5,36.75,36.75,0,0,1,15-2.92h23.78a32.75,32.75,0,0,1,29.93,18.46l0,0,.78,1.33,2.26.08h0v-1"/><path class="cls-5" d="M57,126.12a10,10,0,1,1,10-10,10,10,0,0,1-10,10"/><path class="cls-4" d="M57,107.2a9,9,0,1,1-9,9,9,9,0,0,1,9-9m0-2a11,11,0,1,0,11,11,11,11,0,0,0-11-11"/><path class="cls-5" d="M140.2,126.12a10,10,0,1,1,10-10,10,10,0,0,1-10,10"/><path class="cls-4" d="M140.2,107.2a9,9,0,1,1-8.95,9,9,9,0,0,1,8.95-9m0-2a11,11,0,1,0,11,11,10.95,10.95,0,0,0-11-11"/><path class="cls-6" d="M73.17,93.42,80,87.66A28,28,0,0,1,98.08,81h20.49a21.82,21.82,0,0,1,19.71,12.45l-65.11-.06"/><path class="cls-4" d="M73.17,93.42l.64.77,6.82-5.77A27.06,27.06,0,0,1,98.08,82h20.49a20.84,20.84,0,0,1,18.81,11.88l.9-.43v-1l-65.11-.06v1l.64.77-.64-.77v1l66.69.06-.68-1.43a22.83,22.83,0,0,0-20.61-13H98.08A29,29,0,0,0,79.33,86.9l-8.89,7.52h2.73v-1"/><polyline class="cls-4" points="107.7 80.79 104.57 93.43 106.51 93.91 109.64 81.27 107.7 80.79"/><path class="cls-7" d="M57,107.2a9.11,9.11,0,0,0-3.06.54,9,9,0,0,1,0,16.84,8.87,8.87,0,0,0,3.06.54c.23,0,.45,0,.67,0a9,9,0,0,0,0-17.86c-.22,0-.44,0-.67,0"/><path class="cls-8" d="M54,124.58h0a8.59,8.59,0,0,0,3,.54c.26,0,.51,0,.76,0-.22,0-.44,0-.67,0a8.87,8.87,0,0,1-3.06-.54m3-17.38a8.82,8.82,0,0,0-3,.53h0A9.11,9.11,0,0,1,57,107.2c.23,0,.45,0,.67,0-.25,0-.5,0-.76,0"/><path class="cls-7" d="M140.2,107.2a9.16,9.16,0,0,0-3.06.54,9,9,0,0,1,0,16.84,8.91,8.91,0,0,0,3.06.54c.25,0,.49,0,.73,0a9,9,0,0,0,0-17.86c-.24,0-.48,0-.73,0"/><path class="cls-8" d="M137.14,124.58h0a8.65,8.65,0,0,0,3,.54c.27,0,.55,0,.81,0-.24,0-.48,0-.73,0a8.91,8.91,0,0,1-3.06-.54m3-17.38a8.88,8.88,0,0,0-3,.53h0a9.16,9.16,0,0,1,3.06-.54c.25,0,.49,0,.73,0-.26,0-.54,0-.81,0"/><path class="cls-9" d="M121.51,74.47h-5.27c12.93,1.32,29.78,9.43,32.84,23.72l1.82-.08a7.19,7.19,0,0,1,.92,0c2.12,0,7.24.63,7.44,6.61v12.66h3.87a1.53,1.53,0,0,0,1.07-.44,1.5,1.5,0,0,0,.44-1.07V104.5a10.14,10.14,0,0,0-10.12-10.12h0l-2.26-.08L151.46,93l0,0a32.75,32.75,0,0,0-29.93-18.46"/><path class="cls-10" d="M158.53,118.5h-2.89c.59,0,1.33.09,2,.09a3.44,3.44,0,0,0,.89-.09M122.4,73.64l-9.79.63a35.3,35.3,0,0,1,3.63.2h5.27a32.75,32.75,0,0,1,29.93,18.46l0,0,.78,1.33,2.26.08h0a10.14,10.14,0,0,1,10.12,10.12v11.32a1.5,1.5,0,0,1-.44,1.07,1.53,1.53,0,0,1-1.07.44h-3.87v.3a.85.85,0,0,1-.73.87H164a2.53,2.53,0,0,0,2.52-2.51V104.67a11.16,11.16,0,0,0-11.13-11.13l-1.69-.05-.49-.82a33.75,33.75,0,0,0-30.83-19"/><path class="cls-11" d="M118.57,82h-4a21.87,21.87,0,0,1,13.2,10.44h8.85A20.84,20.84,0,0,0,118.57,82"/><path class="cls-12" d="M109.42,81.22h0"/></g></svg>