<svg xmlns="http://www.w3.org/2000/svg" xmlns:xlink="http://www.w3.org/1999/xlink" viewBox="0 0 208 207.93"><defs><style>.cls-1,.cls-8{fill:none;}.cls-2{isolation:isolate;}.cls-3{clip-path:url(#clip-path);}.cls-11,.cls-4{fill:#14c6c6;}.cls-4,.cls-7,.cls-8{stroke:#1d1d1b;stroke-miterlimit:10;stroke-width:2px;}.cls-5{fill:#fbc44d;}.cls-6{fill:#1d1d1b;}.cls-7{fill:#fff;}.cls-9{opacity:0.7;mix-blend-mode:multiply;}.cls-10{fill:#ffda80;}.cls-12{fill:#dadada;}</style><clipPath id="clip-path"><rect class="cls-1" x="-232.76" y="-792.7" width="750" height="1334.03"/></clipPath></defs><title>otoboto-images</title><g class="cls-2"><g id="APP"><path class="cls-4" d="M143.34,71.13H82.64a9.94,9.94,0,0,0-8.5,4.79L63.9,91.11A4.3,4.3,0,0,1,60.43,93l-16,.43a5.91,5.91,0,0,0-5.59,4.12,5.75,5.75,0,0,0-.24,1.66v16a5,5,0,0,0,5,5H81.8a5.44,5.44,0,0,0,.57,0h61a4.9,4.9,0,0,0,4.89-4.88V76A4.9,4.9,0,0,0,143.34,71.13Z"/><circle class="cls-5" cx="61.81" cy="120.33" r="12.57"/><path class="cls-6" d="M61.81,108.77a11.57,11.57,0,1,1-11.56,11.56,11.58,11.58,0,0,1,11.56-11.56m0-2a13.57,13.57,0,1,0,13.57,13.56,13.56,13.56,0,0,0-13.57-13.56Z"/><circle class="cls-5" cx="125.4" cy="120.33" r="12.57"/><path class="cls-6" d="M125.4,108.77a11.57,11.57,0,1,1-11.57,11.56,11.58,11.58,0,0,1,11.57-11.56m0-2A13.57,13.57,0,1,0,139,120.33a13.57,13.57,0,0,0-13.57-13.56Z"/><path class="cls-4" d="M148.23,83.72H156a3.23,3.23,0,0,1,3.23,3.23v17.56a3.23,3.23,0,0,1-3.23,3.23h-7.74a0,0,0,0,1,0,0v-24A0,0,0,0,1,148.23,83.72Z"/><path class="cls-7" d="M119,78.3h17.21a3,3,0,0,1,3,3l0,8.64a3,3,0,0,1-3,3H76.81a2.07,2.07,0,0,1-1.7-3.23l7.07-10.29a2.42,2.42,0,0,1,2-1.06H119Z"/><line class="cls-8" x1="110.88" y1="78.3" x2="110.88" y2="92.88"/><g class="cls-9"><path class="cls-10" d="M136.94,120.31a11.53,11.53,0,0,1-11.52,11.53,11.36,11.36,0,0,1-3.89-.68,11.52,11.52,0,0,0,0-21.7,11.36,11.36,0,0,1,3.89-.68A11.53,11.53,0,0,1,136.94,120.31Z"/></g><g class="cls-9"><path class="cls-10" d="M73.33,120.31a11.52,11.52,0,0,1-11.52,11.53,11.35,11.35,0,0,1-3.88-.68,11.52,11.52,0,0,0,0-21.7,11.35,11.35,0,0,1,3.88-.68A11.53,11.53,0,0,1,73.33,120.31Z"/></g><g class="cls-9"><path class="cls-11" d="M148.84,76v39.43a4.9,4.9,0,0,1-4.89,4.89h-7a4.9,4.9,0,0,0,4.89-4.89V76a4.9,4.9,0,0,0-4.89-4.89h7A4.9,4.9,0,0,1,148.84,76Z"/></g><g class="cls-9"><path class="cls-11" d="M158.83,87v17.57a3.23,3.23,0,0,1-3.23,3.22h-7a3.22,3.22,0,0,0,3.23-3.22V87a3.23,3.23,0,0,0-3.23-3.23h7A3.23,3.23,0,0,1,158.83,87Z"/></g><g class="cls-9"><path class="cls-12" d="M139.24,89.9a3,3,0,0,1-3,3h-7a3,3,0,0,0,3-3V81.27a3,3,0,0,0-3-3h7a3,3,0,0,1,3,3Z"/></g></g></g></svg>