<svg xmlns="http://www.w3.org/2000/svg" xmlns:xlink="http://www.w3.org/1999/xlink" viewBox="0 0 218 216"><defs><style>.cls-1{fill:none;}.cls-2{clip-path:url(#clip-path);}.cls-3{fill:#14c6c6;}.cls-4{fill:#1d1d1b;}.cls-5{fill:#fbc44d;}.cls-6{fill:#07a7a7;}.cls-7{fill:#ffe5a6;}.cls-8{fill:#14b281;}.cls-9{fill:#1d1a12;}.cls-10{fill:#fbb032;}.cls-11{fill:#0a160f;}</style><clipPath id="clip-path"><rect class="cls-1" x="-304" y="-550.28" width="750" height="1334.03"/></clipPath></defs><title>otoboto-images</title><g id="APP"><path class="cls-3" d="M162.86,102.15l-32.64.46v-1.82A3.23,3.23,0,0,0,127,97.56h-.6a3.24,3.24,0,0,0-3.23,3.23v1.91l-18.44.26a1.27,1.27,0,0,1-.67-2.35l6.61-4a3.2,3.2,0,1,0-3.32-5.48l-15.53,9.52a4.28,4.28,0,0,1-2,.63l-26.6,1.26a23.67,23.67,0,0,0-20.13,13.18l-.85,1.72a6.58,6.58,0,0,0,5.86,9.48l115.56.53A10.43,10.43,0,0,0,174.15,117v-3.56a11.33,11.33,0,0,0-11.29-11.3"/><path class="cls-4" d="M163.73,128.44h0l-115.57-.53A7.58,7.58,0,0,1,41.36,117l.85-1.72a24.69,24.69,0,0,1,21-13.74l26.61-1.26a3.27,3.27,0,0,0,1.49-.48l15.52-9.52a4.2,4.2,0,1,1,4.37,7.18l-6.61,4a.26.26,0,0,0-.12.3.25.25,0,0,0,.25.2l17.46-.24v-.93a4.24,4.24,0,0,1,4.23-4.23h.6a4.23,4.23,0,0,1,4.23,4.23v.8l31.63-.43a12.3,12.3,0,0,1,12.3,12.29V117a11.42,11.42,0,0,1-11.42,11.43M109,91.66a2.23,2.23,0,0,0-1.13.31L92.33,101.5a5.33,5.33,0,0,1-2.42.76l-26.63,1.26A22.69,22.69,0,0,0,44,116.16l-.85,1.71a5.57,5.57,0,0,0,5,8l115.57.53h0a9.42,9.42,0,0,0,9.42-9.43v-3.56a10.29,10.29,0,0,0-10.29-10.29l-33.64.46v-2.83A2.23,2.23,0,0,0,127,98.56h-.6a2.23,2.23,0,0,0-2.23,2.23v2.9l-19.42.27h0a2.27,2.27,0,0,1-1.21-4.21l6.61-4A2.2,2.2,0,0,0,109,91.66"/><path class="cls-5" d="M65,132.92a9.31,9.31,0,1,1,9.32-9.31A9.32,9.32,0,0,1,65,132.92"/><path class="cls-4" d="M65,115.3a8.31,8.31,0,1,1-8.31,8.31A8.32,8.32,0,0,1,65,115.3m0-2a10.31,10.31,0,1,0,10.32,10.31A10.3,10.3,0,0,0,65,113.3"/><path class="cls-5" d="M151.17,132.92a9.31,9.31,0,1,1,9.32-9.31,9.32,9.32,0,0,1-9.32,9.31"/><path class="cls-4" d="M151.17,115.3a8.31,8.31,0,1,1-8.31,8.31,8.32,8.32,0,0,1,8.31-8.31m0-2a10.31,10.31,0,1,0,10.32,10.31,10.31,10.31,0,0,0-10.32-10.31"/><path class="cls-6" d="M162.86,103.16l-2.33,0a11.34,11.34,0,0,1,6.59,10.26V117a10.41,10.41,0,0,1-6,9.4l2.52,0h0a9.42,9.42,0,0,0,9.42-9.43v-3.56a10.29,10.29,0,0,0-10.29-10.29"/><path class="cls-7" d="M160.3,128.42a10.32,10.32,0,0,1-9.13,5.5,10.6,10.6,0,0,1-1.5-.1,10.73,10.73,0,0,0,1.51.11,10.3,10.3,0,0,0,9.12-5.51h0"/><path class="cls-8" d="M161.48,123.82a10.14,10.14,0,0,1-.38,2.6h0a10.14,10.14,0,0,0,.38-2.6m-10.3-10.53a10.31,10.31,0,0,0-1.58.13,10.31,10.31,0,0,1,11.88,10,10.31,10.31,0,0,0-10.3-10.11"/><path class="cls-9" d="M160.76,127.42a10.16,10.16,0,0,1-.46,1h0a10.16,10.16,0,0,0,.46-1h0m.34-1v0h0v0h0"/><path class="cls-10" d="M151.17,115.3c-.27,0-.53,0-.79,0a10.32,10.32,0,0,1,0,16.56c.26,0,.52,0,.79,0a8.3,8.3,0,0,0,7.39-4.51s-.3-.08.09-.16a8.31,8.31,0,0,0-7.48-12"/><path class="cls-11" d="M161.09,126.47h0c-.1.32-.21.64-.33,1h0c.12-.31.23-.63.33-1"/><path class="cls-7" d="M74.29,128A10.31,10.31,0,0,1,65,133.92a9.67,9.67,0,0,1-1.53-.11,9.8,9.8,0,0,0,1.54.12A10.32,10.32,0,0,0,74.3,128h0"/><path class="cls-8" d="M75.28,123.82A10.05,10.05,0,0,1,75,126h0a10.05,10.05,0,0,0,.28-2.21M65,113.29a10.47,10.47,0,0,0-1.6.13A10.44,10.44,0,0,1,65,113.3a10.3,10.3,0,0,1,10.31,10.1A10.31,10.31,0,0,0,65,113.29"/><path class="cls-9" d="M75,126a10.32,10.32,0,0,1-.71,2h0a11,11,0,0,0,.7-2h0"/><path class="cls-10" d="M65,115.3c-.27,0-.53,0-.79,0a10.32,10.32,0,0,1,0,16.56c.26,0,.52,0,.79,0a8.31,8.31,0,1,0,0-16.62"/></g></svg>