<svg xmlns="http://www.w3.org/2000/svg" xmlns:xlink="http://www.w3.org/1999/xlink" viewBox="0 0 170.27 170.27"><defs><style>.cls-1,.cls-10{fill:none;}.cls-2{isolation:isolate;}.cls-3{clip-path:url(#clip-path);}.cls-4{fill:#f6f6f6;}.cls-5{fill:#ffda80;}.cls-11,.cls-6{fill:#14c6c6;}.cls-10,.cls-6,.cls-9{stroke:#1d1d1b;stroke-miterlimit:10;stroke-width:2px;}.cls-7{fill:#fbc44d;}.cls-8{fill:#1d1d1b;}.cls-9{fill:#fff;}.cls-11,.cls-12{opacity:0.5;}.cls-11,.cls-12,.cls-13{mix-blend-mode:multiply;}.cls-13{fill:#dadada;opacity:0.7;}</style><clipPath id="clip-path"><rect class="cls-1" x="-527.96" y="-781.46" width="750" height="1334.03"/></clipPath></defs><title>OTOBOTO divided to screens16-33</title><g class="cls-2"><g id="grass"><g class="cls-3"><rect class="cls-4" x="-1089.27" y="-781.46" width="1922.99" height="1331.56"/></g></g><g id="bar"><circle class="cls-5" cx="85.14" cy="85.14" r="85.14"/><path class="cls-6" d="M132.3,109.18H36.21a3.88,3.88,0,0,1-3.87-3.87c0-1.87-.11-4.23-.11-6.6a25.74,25.74,0,0,1,.88-7.84,11.7,11.7,0,0,1,3.33-5c8.32-7.39,40.24-32.17,59.21-32.17L122.19,55c2.31.11,5.75,5.14,8.49,9.89a44.26,44.26,0,0,1,6,26.22c0,.06,0,.12,0,.19a12.65,12.65,0,0,0,.25,4.42l.65,1.89A9.25,9.25,0,0,1,132.3,109.18Z"/><path class="cls-7" d="M47,115.54a9.93,9.93,0,1,1,9.92-9.93A9.94,9.94,0,0,1,47,115.54Z"/><path class="cls-8" d="M47,96.68a8.93,8.93,0,1,1-8.93,8.93A8.94,8.94,0,0,1,47,96.68m0-2a10.93,10.93,0,1,0,10.92,10.93A10.93,10.93,0,0,0,47,94.68Z"/><path class="cls-9" d="M59.73,80a.8.8,0,0,1-.53-1.4c6.84-5.94,26-16.49,32.34-16.49l20.3.26a7.69,7.69,0,0,1,7,5.27L121.27,77a2.29,2.29,0,0,1-2.2,2.87Z"/><line class="cls-10" x1="102.55" y1="62.29" x2="107.39" y2="79.91"/><path class="cls-11" d="M130.3,109.18H123a9.26,9.26,0,0,0,5.24-11.56l-.65-1.89a12.66,12.66,0,0,1-.26-4.42c0-.06,0-.12,0-.19a44.34,44.34,0,0,0-6-26.22c-2.74-4.75-6.17-9.78-8.49-9.89h7.31c2.31.11,5.75,5.14,8.49,9.89a44.26,44.26,0,0,1,6,26.22c0,.06,0,.12,0,.19a12.65,12.65,0,0,0,.25,4.42l.65,1.89A9.25,9.25,0,0,1,130.3,109.18Z"/><g class="cls-12"><path class="cls-5" d="M55.68,105.61a9,9,0,0,1-9,9,8.64,8.64,0,0,1-3-.53,9,9,0,0,0,0-16.86,8.94,8.94,0,0,1,12,8.43Z"/></g><path class="cls-7" d="M120.8,115.54a9.93,9.93,0,1,1,9.93-9.93A9.93,9.93,0,0,1,120.8,115.54Z"/><path class="cls-8" d="M120.81,96.68a8.93,8.93,0,1,1-8.93,8.93,8.94,8.94,0,0,1,8.93-8.93m0-2a10.93,10.93,0,1,0,10.92,10.93,10.93,10.93,0,0,0-10.92-10.93Z"/><g class="cls-12"><path class="cls-5" d="M129.52,105.61a9,9,0,0,1-9,9,8.64,8.64,0,0,1-3-.53,9,9,0,0,0,0-16.86,8.95,8.95,0,0,1,12,8.43Z"/></g><path class="cls-13" d="M117.87,79h-6.35a2.07,2.07,0,0,0,2-2.6l-2.25-8.48a7,7,0,0,0-6.3-4.78h6.35a7,7,0,0,1,6.3,4.78l2.25,8.48A2.07,2.07,0,0,1,117.87,79Z"/></g></g></svg>