<svg xmlns="http://www.w3.org/2000/svg" xmlns:xlink="http://www.w3.org/1999/xlink" viewBox="0 0 202 195.93"><defs><style>.cls-1,.cls-8,.cls-9{fill:none;}.cls-2{isolation:isolate;}.cls-3{clip-path:url(#clip-path);}.cls-12,.cls-4{fill:#14c6c6;}.cls-4,.cls-5,.cls-8,.cls-9{stroke:#1d1d1b;stroke-miterlimit:10;stroke-width:2px;}.cls-5{fill:#fff;}.cls-6{fill:#fbc44d;}.cls-7{fill:#1d1d1b;}.cls-8{stroke-linecap:round;}.cls-10{opacity:0.7;mix-blend-mode:multiply;}.cls-11{fill:#ffda80;}.cls-13{fill:#dadada;}</style><clipPath id="clip-path"><rect class="cls-1" x="-11.36" y="-792.7" width="750" height="1334.03"/></clipPath></defs><title>otoboto-images</title><g class="cls-2"><g id="APP"><path class="cls-4" d="M166.19,110.92a6.91,6.91,0,0,1-6.9,6.9H35.65a6.92,6.92,0,0,1-6.9-6.9V100.71a6.92,6.92,0,0,1,6.9-6.9h24a5.83,5.83,0,0,0,4-1.59,47.7,47.7,0,0,1,14.7-8.86,64.76,64.76,0,0,1,25.5-4.53,68.1,68.1,0,0,1,18.62,3L163.1,96.12a4.31,4.31,0,0,1,2.89,4Z"/><path class="cls-5" d="M139.68,95.58H69.47a.62.62,0,0,1-.35-1.14,76,76,0,0,1,9-5.27c13.53-6.78,29.67-6,44.12-1.48l17.65,6.68A.62.62,0,0,1,139.68,95.58Z"/><path class="cls-6" d="M52.73,127.22a9.4,9.4,0,1,1,9.4-9.4A9.41,9.41,0,0,1,52.73,127.22Z"/><path class="cls-7" d="M52.73,109.42a8.4,8.4,0,1,1-8.4,8.4,8.41,8.41,0,0,1,8.4-8.4m0-2a10.4,10.4,0,1,0,10.4,10.4,10.4,10.4,0,0,0-10.4-10.4Z"/><path class="cls-6" d="M139.33,127.22a9.4,9.4,0,1,1,9.4-9.4A9.41,9.41,0,0,1,139.33,127.22Z"/><path class="cls-7" d="M139.33,109.42a8.4,8.4,0,1,1-8.4,8.4,8.41,8.41,0,0,1,8.4-8.4m0-2a10.4,10.4,0,1,0,10.4,10.4,10.4,10.4,0,0,0-10.4-10.4Z"/><line class="cls-8" x1="34.37" y1="89.21" x2="34.37" y2="93.81"/><line class="cls-9" x1="114.3" y1="85.65" x2="110.37" y2="95.58"/><g class="cls-10"><path class="cls-11" d="M61.26,117.82a8.44,8.44,0,0,1-11.3,8,8.45,8.45,0,0,0,0-15.92,8.44,8.44,0,0,1,11.3,8Z"/></g><g class="cls-10"><path class="cls-11" d="M147.83,117.82a8.46,8.46,0,0,1-8.46,8.46,8.31,8.31,0,0,1-2.84-.5,8.46,8.46,0,0,0,0-15.92,8.31,8.31,0,0,1,2.84-.5A8.46,8.46,0,0,1,147.83,117.82Z"/></g><g class="cls-10"><path class="cls-12" d="M166.19,110.92a6.91,6.91,0,0,1-6.9,6.9h-7.07a6.91,6.91,0,0,0,6.89-6.9l-.2-11.35a4.3,4.3,0,0,0-2.89-4l-30.74-12c-4.91-1.52-19.89-4.14-25-4.54,1.16-.09,2.32-.15,3.48-.17a68.1,68.1,0,0,1,18.62,3L163.1,96.12a4.31,4.31,0,0,1,2.89,4Z"/></g><g class="cls-10"><path class="cls-13" d="M138.77,95.58H128.61a.63.63,0,0,0,.22-1.21l-17.66-6.68a76.75,76.75,0,0,0-16.59-3.26,70.66,70.66,0,0,1,26.76,3.26L139,94.37A.62.62,0,0,1,138.77,95.58Z"/></g></g></g></svg>