<svg xmlns="http://www.w3.org/2000/svg" xmlns:xlink="http://www.w3.org/1999/xlink" viewBox="0 0 224.72 204"><defs><style>.cls-1,.cls-8{fill:none;}.cls-2{isolation:isolate;}.cls-3{clip-path:url(#clip-path);}.cls-10,.cls-4{fill:#14c6c6;}.cls-4,.cls-7,.cls-8{stroke:#1d1d1b;stroke-miterlimit:10;stroke-width:2px;}.cls-5{fill:#fbc44d;}.cls-6{fill:#1d1d1b;}.cls-7{fill:#fff;}.cls-9{opacity:0.5;}.cls-12,.cls-9{mix-blend-mode:multiply;}.cls-11{fill:#ffda80;}.cls-12{opacity:0.7;}.cls-13{fill:#dadada;}</style><clipPath id="clip-path"><rect class="cls-1" y="-562.28" width="750" height="1334.03"/></clipPath></defs><title>otoboto-images</title><g class="cls-2"><g id="APP"><path class="cls-4" d="M158.7,124.34H62.61a3.88,3.88,0,0,1-3.87-3.87c0-1.87-.11-4.23-.11-6.6a25.74,25.74,0,0,1,.88-7.84,11.7,11.7,0,0,1,3.33-5c8.32-7.39,40.24-32.17,59.21-32.17l26.54,1.28c2.31.11,5.75,5.14,8.49,9.89a44.26,44.26,0,0,1,6,26.22c0,.06,0,.12,0,.19a12.65,12.65,0,0,0,.25,4.42l.65,1.89A9.25,9.25,0,0,1,158.7,124.34Z"/><path class="cls-5" d="M73.4,130.7a9.93,9.93,0,1,1,9.93-9.93A9.95,9.95,0,0,1,73.4,130.7Z"/><path class="cls-6" d="M73.4,111.84a8.93,8.93,0,1,1-8.93,8.93,8.95,8.95,0,0,1,8.93-8.93m0-2a10.93,10.93,0,1,0,10.93,10.93A10.93,10.93,0,0,0,73.4,109.84Z"/><path class="cls-7" d="M86.14,95.19a.8.8,0,0,1-.54-1.4c6.84-5.94,26-16.49,32.34-16.49l20.31.25a7.71,7.71,0,0,1,6.94,5.27l2.48,9.35a2.28,2.28,0,0,1-2.2,2.87Z"/><line class="cls-8" x1="128.95" y1="77.45" x2="133.79" y2="95.07"/><g class="cls-9"><path class="cls-10" d="M157.83,124.34h-7.3a9.26,9.26,0,0,0,5.24-11.56l-.65-1.89a12.66,12.66,0,0,1-.26-4.42c0-.06,0-.12,0-.19a44.34,44.34,0,0,0-6-26.22c-2.74-4.75-6.17-9.78-8.49-9.89h7.31c2.31.11,5.75,5.14,8.49,9.89a44.26,44.26,0,0,1,6,26.22c0,.06,0,.12,0,.19a12.65,12.65,0,0,0,.25,4.42l.65,1.89A9.25,9.25,0,0,1,157.83,124.34Z"/></g><g class="cls-9"><path class="cls-11" d="M82.09,120.77a8.95,8.95,0,0,1-12,8.43,9,9,0,0,0,0-16.86,8.65,8.65,0,0,1,3-.54A9,9,0,0,1,82.09,120.77Z"/></g><path class="cls-5" d="M147.21,130.7a9.93,9.93,0,1,1,9.93-9.93A9.94,9.94,0,0,1,147.21,130.7Z"/><path class="cls-6" d="M147.21,111.84a8.93,8.93,0,1,1-8.93,8.93,8.95,8.95,0,0,1,8.93-8.93m0-2a10.93,10.93,0,1,0,10.93,10.93,10.93,10.93,0,0,0-10.93-10.93Z"/><g class="cls-9"><path class="cls-11" d="M155.92,120.77a9,9,0,0,1-9,9,8.82,8.82,0,0,1-3-.53,9,9,0,0,0,0-16.86,8.59,8.59,0,0,1,3-.54A9,9,0,0,1,155.92,120.77Z"/></g><g class="cls-12"><path class="cls-13" d="M144.28,94.18h-6.36a2.07,2.07,0,0,0,2-2.61l-2.25-8.48a7,7,0,0,0-6.3-4.78h6.35a7,7,0,0,1,6.3,4.78l2.25,8.48A2.07,2.07,0,0,1,144.28,94.18Z"/></g></g></g></svg>