<svg xmlns="http://www.w3.org/2000/svg" viewBox="0 0 58.09 58.09"><defs><style>.cls-1{fill:#fff;stroke:#1d1d1b;stroke-miterlimit:10;}.cls-2{fill:#14c6c6;}.cls-3{fill:#1d1d1b;}</style></defs><title>OTOBOTO divided to screens16-33</title><g id="bar"><rect class="cls-1" x="1" y="1" width="56.09" height="56.09" rx="28.05" ry="28.05"/><path class="cls-2" d="M38,41.59a3.54,3.54,0,0,1-2.53-1.05l-6.43-6.43-6.44,6.43a3.58,3.58,0,1,1-5.06-5.06L24,29.05l-6.43-6.44a3.58,3.58,0,1,1,5.06-5.06L29.05,24l6.43-6.43a3.58,3.58,0,1,1,5.06,5.06l-6.43,6.44,6.43,6.43A3.58,3.58,0,0,1,38,41.59Z"/><path class="cls-3" d="M38,17a3.08,3.08,0,0,1,2.18,5.26l-6.08,6.08-.71.71.71.7,6.08,6.08a3.08,3.08,0,0,1-4.36,4.36l-6.08-6.08-.7-.71-.71.71-6.08,6.08a3.08,3.08,0,0,1-4.36-4.36L24,29.75l.71-.7L24,28.34,17.9,22.26a3.08,3.08,0,0,1,4.36-4.36L28.34,24l.71.71.7-.71,6.08-6.08A3.07,3.07,0,0,1,38,17m0-1a4,4,0,0,0-2.88,1.2l-6.08,6.08L23,17.2A4.08,4.08,0,0,0,17.2,23l6.08,6.08L17.2,35.13A4.08,4.08,0,1,0,23,40.89l6.08-6.08,6.08,6.08a4.07,4.07,0,1,0,5.76-5.76l-6.08-6.08L40.89,23A4.09,4.09,0,0,0,38,16Z"/></g></svg>