<svg xmlns="http://www.w3.org/2000/svg" viewBox="0 0 11.48 22"><defs><style>.cls-1{fill:#fff;}</style></defs><title>33</title><g id="screen1"><path class="cls-1" d="M11.48,3.73H10.16c-.48,0-.95,0-1.43.06a1.17,1.17,0,0,0-1.16,1c-.07,1,0,2.07,0,3.17h3.8c-.13,1-.22,2-.37,2.93S10.79,12,9.7,12H7.55c0,.26,0,.48,0,.71v8.55c0,.73,0,.73-.76.73H3.4c0-.27,0-.52,0-.76,0-2.85,0-5.7,0-8.55,0-.51-.1-.72-.66-.69a22.06,22.06,0,0,1-2.3,0C.26,12,0,11.8,0,11.69,0,10.49,0,9.29,0,8,.92,8,1.79,8,2.66,8c.59,0,.69-.19.7-.71a23.92,23.92,0,0,1,.18-3.6A4.35,4.35,0,0,1,7.71,0a32,32,0,0,1,3.39.1c.13,0,.36.2.36.32C11.49,1.5,11.48,2.55,11.48,3.73Z"/></g></svg>