<svg xmlns="http://www.w3.org/2000/svg" xmlns:xlink="http://www.w3.org/1999/xlink" viewBox="0 0 235.17 114.36"><defs><style>.cls-1{fill:none;}.cls-2{clip-path:url(#clip-path);}.cls-3{fill:#fff;}</style><clipPath id="clip-path"><rect class="cls-1" x="-456.67" y="-792.7" width="50" height="50"/></clipPath></defs><title>otoboto-images</title><g id="APP"><path class="cls-3" d="M165,53.65H163.7c-.47,0-.95,0-1.42.05a1.17,1.17,0,0,0-1.16,1c-.07,1,0,2.07,0,3.17h3.8c-.13,1-.23,2-.37,2.93s-.19,1.08-1.28,1.08H161.1c0,.25,0,.48,0,.7,0,2.85,0,5.7,0,8.55,0,.74,0,.74-.75.74H157c0-.28-.06-.52-.06-.77,0-2.85,0-5.7,0-8.55,0-.51-.11-.72-.66-.68-.77,0-1.54,0-2.3,0a.5.5,0,0,1-.38-.3c0-1.2,0-2.41,0-3.69.92,0,1.79,0,2.66,0,.58,0,.69-.18.69-.71a25.39,25.39,0,0,1,.18-3.6,4.36,4.36,0,0,1,4.18-3.69,32.07,32.07,0,0,1,3.39.1.51.51,0,0,1,.36.32C165,51.42,165,52.48,165,53.65Z"/></g></svg>