<svg xmlns="http://www.w3.org/2000/svg" xmlns:xlink="http://www.w3.org/1999/xlink" viewBox="0 0 43.18 38.71"><defs><style>.cls-1{fill:none;}.cls-2{fill:#ffda80;}.cls-3,.cls-8{fill:#14c6c6;}.cls-3,.cls-4{stroke:#1d1d1b;stroke-miterlimit:10;}.cls-3{stroke-width:0.84px;}.cls-4,.cls-5{fill:#fff;}.cls-4{stroke-width:0.84px;}.cls-6{clip-path:url(#clip-path);}.cls-7{fill:#f6f6f6;}</style><clipPath id="clip-path"><rect class="cls-1" x="-1127.6" y="-254.59" width="750" height="1334.03"/></clipPath></defs><title>48-58</title><g id="web6"><circle class="cls-2" cx="21.59" cy="19.35" r="17.17"/><rect class="cls-3" x="15.08" y="10.72" width="16.27" height="4.21" rx="1.84" ry="1.84"/><rect class="cls-3" x="15.08" y="15.09" width="16.27" height="4.21" rx="1.84" ry="1.84"/><rect class="cls-3" x="15.08" y="19.45" width="16.27" height="4.21" rx="1.84" ry="1.84"/><rect class="cls-3" x="15.08" y="23.81" width="16.27" height="4.21" rx="1.84" ry="1.84"/><path class="cls-4" d="M17.46,13.62a7.71,7.71,0,1,0,7.7,7.7A7.72,7.72,0,0,0,17.46,13.62Z"/><path class="cls-5" d="M17.46,28.19a6.87,6.87,0,1,1,6.86-6.87A6.89,6.89,0,0,1,17.46,28.19ZM16.73,24V20.49a.4.4,0,0,0-.4-.43.41.41,0,0,0-.42.43v3.92a.4.4,0,0,0,.4.43c1.1,0,2.21,0,3.32,0a1.73,1.73,0,0,0,1.6-1.07,2.6,2.6,0,0,0,.19-1.07V18.62a1,1,0,0,0,0-.18.4.4,0,0,0-.79,0,.68.68,0,0,0,0,.2v4c0,.11,0,.23,0,.35A1.05,1.05,0,0,1,19.45,24H16.73Zm-2.26-5.09c.95,0,1.88,0,2.81,0a.87.87,0,0,1,.89,1v2.39a.59.59,0,0,0,0,.23.39.39,0,0,0,.45.25.41.41,0,0,0,.33-.42c0-.86,0-1.73,0-2.59a1.67,1.67,0,0,0-1.29-1.6,3.27,3.27,0,0,0-.62-.07H14.15c-.35,0-.5.15-.5.51v5.72a.83.83,0,0,0,0,.22.41.41,0,0,0,.38.28.4.4,0,0,0,.39-.27,1.06,1.06,0,0,0,0-.25V18.94Z"/><path d="M16.73,24h2.72A1.05,1.05,0,0,0,20.59,23c0-.12,0-.24,0-.35v-4a.68.68,0,0,1,0-.2.4.4,0,0,1,.79,0,1,1,0,0,1,0,.18v4.07a2.6,2.6,0,0,1-.19,1.07,1.73,1.73,0,0,1-1.6,1.07c-1.11,0-2.22,0-3.32,0a.4.4,0,0,1-.4-.43V20.49a.41.41,0,0,1,.42-.43.4.4,0,0,1,.4.43V24Z"/><path d="M14.47,18.94v5.39a1.06,1.06,0,0,1,0,.25.4.4,0,0,1-.39.27.41.41,0,0,1-.38-.28.83.83,0,0,1,0-.22V18.63c0-.36.15-.51.5-.51h2.93a3.27,3.27,0,0,1,.62.07A1.67,1.67,0,0,1,19,19.79c0,.86,0,1.73,0,2.59a.41.41,0,0,1-.33.42.39.39,0,0,1-.45-.25.59.59,0,0,1,0-.23V19.93a.87.87,0,0,0-.89-1C16.35,18.92,15.42,18.94,14.47,18.94Z"/></g><g id="screen7"><g class="cls-6"><rect class="cls-7" x="-1688.92" y="-254.59" width="1922.99" height="1331.56"/><rect class="cls-8" x="-1688.92" y="-254.5" width="1922.99" height="268.03"/></g></g></svg>