<svg xmlns="http://www.w3.org/2000/svg" xmlns:xlink="http://www.w3.org/1999/xlink" viewBox="0 0 43.18 38.71"><defs><style>.cls-1,.cls-8{fill:none;}.cls-2{isolation:isolate;}.cls-3{fill:#ffda80;}.cls-10,.cls-14,.cls-4{fill:#14c6c6;}.cls-4,.cls-7,.cls-8{stroke:#1d1d1b;stroke-miterlimit:10;stroke-width:0.6px;}.cls-5{fill:#fbc44d;}.cls-6{fill:#1d1d1b;}.cls-7{fill:#fff;}.cls-10,.cls-11,.cls-9{opacity:0.7;mix-blend-mode:multiply;}.cls-11{fill:#dadada;}.cls-12{clip-path:url(#clip-path);}.cls-13{fill:#f6f6f6;}</style><clipPath id="clip-path"><rect class="cls-1" x="-1246.42" y="-254.59" width="750" height="1334.03"/></clipPath></defs><title>48-58</title><g class="cls-2"><g id="web6"><circle class="cls-3" cx="21.59" cy="19.35" r="16.44"/><path class="cls-4" d="M32.32,18H32l-.1-.16a6.51,6.51,0,0,0-5.95-3.68H21.35a8,8,0,0,0-5.53,2.25L13.93,18h-1a4.33,4.33,0,0,0-4.33,4.33h0a.48.48,0,0,0,.48.49H34a.48.48,0,0,0,.48-.49V20.17A2.14,2.14,0,0,0,32.32,18Z"/><circle class="cls-5" cx="13.49" cy="22.42" r="1.82"/><path class="cls-6" d="M13.49,20.9A1.52,1.52,0,1,1,12,22.42a1.52,1.52,0,0,1,1.52-1.52m0-.6a2.12,2.12,0,1,0,2.11,2.12,2.12,2.12,0,0,0-2.11-2.12Z"/><circle class="cls-5" cx="29.55" cy="22.42" r="1.82"/><path class="cls-6" d="M29.55,20.9A1.52,1.52,0,1,1,28,22.42a1.52,1.52,0,0,1,1.52-1.52m0-.6a2.12,2.12,0,1,0,2.12,2.12,2.12,2.12,0,0,0-2.12-2.12Z"/><path class="cls-7" d="M16.8,18l1.31-1.12a5.47,5.47,0,0,1,3.5-1.28h3.95A4.22,4.22,0,0,1,29.37,18Z"/><line class="cls-8" x1="23.65" y1="15.63" x2="23.05" y2="18.07"/><g class="cls-9"><path class="cls-3" d="M15.2,22.42a1.72,1.72,0,0,1-1.73,1.73,1.81,1.81,0,0,1-.58-.1,1.74,1.74,0,0,0,0-3.26,1.57,1.57,0,0,1,.58-.1A1.72,1.72,0,0,1,15.2,22.42Z"/></g><g class="cls-9"><path class="cls-3" d="M31.26,22.42a1.72,1.72,0,0,1-1.73,1.73,1.86,1.86,0,0,1-.58-.1,1.73,1.73,0,0,0,0-3.26,1.61,1.61,0,0,1,.58-.1A1.72,1.72,0,0,1,31.26,22.42Z"/></g><path class="cls-10" d="M34.64,20.2v2.19a.49.49,0,0,1-.49.48H32.53c.27,0,.7.1.7-.17V20.2c0-1.46-1.61-1.27-1.61-1.27l-.36,0c-.64-3-4.5-4.62-7-4.62l1.89-.12a6.52,6.52,0,0,1,6,3.67l.09.16h.33A2.16,2.16,0,0,1,34.64,20.2Z"/><path class="cls-11" d="M29.17,18.07H27.46a4.21,4.21,0,0,0-3.81-2.4h1.72A4.2,4.2,0,0,1,29.17,18.07Z"/></g><g id="screen7"><g class="cls-12"><rect class="cls-13" x="-1807.74" y="-254.59" width="1922.99" height="1331.56"/><rect class="cls-14" x="-1807.74" y="-254.5" width="1922.99" height="268.03"/></g></g></g></svg>