<svg xmlns="http://www.w3.org/2000/svg" xmlns:xlink="http://www.w3.org/1999/xlink" viewBox="0 0 43.18 38.71"><defs><style>.cls-1{fill:none;}.cls-2{fill:#ffda80;}.cls-3,.cls-7{fill:#14c6c6;}.cls-3,.cls-4{stroke:#1d1d1b;stroke-miterlimit:10;stroke-width:1.01px;}.cls-4{fill:#fff;}.cls-5{clip-path:url(#clip-path);}.cls-6{fill:#f6f6f6;}</style><clipPath id="clip-path"><rect class="cls-1" x="-1184.94" y="-254.59" width="750" height="1334.03"/></clipPath></defs><title>48-58</title><g id="web6"><circle class="cls-2" cx="21.59" cy="19.35" r="16.61"/><path class="cls-3" d="M28.68,17.14a8.64,8.64,0,0,1-1,3.38,33,33,0,0,1-4.07,6.14c-.58.73-1.17,1.45-1.79,2.14a.41.41,0,0,1-.62,0,52.73,52.73,0,0,1-3.61-4.56,29.75,29.75,0,0,1-2-3.22,9.67,9.67,0,0,1-1.2-3.44A7.66,7.66,0,0,1,17.3,11a6.86,6.86,0,0,1,4.24-1.49,7.12,7.12,0,0,1,5.89,3.29,7.78,7.78,0,0,1,1.25,3.71C28.69,16.73,28.69,16.93,28.68,17.14Z"/><circle class="cls-4" cx="21.55" cy="16.74" r="3.53"/></g><g id="screen7"><g class="cls-5"><rect class="cls-6" x="-1746.25" y="-254.59" width="1922.99" height="1331.56"/><rect class="cls-7" x="-1746.25" y="-254.5" width="1922.99" height="268.03"/></g></g></svg>