<?xml version="1.0" encoding="iso-8859-1"?>
<!-- Generator: Adobe Illustrator 19.0.0, SVG Export Plug-In . SVG Version: 6.00 Build 0)  -->
<svg version="1.1" id="Capa_1" xmlns="http://www.w3.org/2000/svg" xmlns:xlink="http://www.w3.org/1999/xlink" x="0px" y="0px"
	 viewBox="0 0 512 512" style="enable-background:new 0 0 512 512;" xml:space="preserve">
<g>
	<g>
		<path d="M406,362H106c-8.284,0-15,6.713-15,15v45h330v-45C421,368.714,414.284,362,406,362z"/>
	</g>
</g>
<g>
	<g>
		<path d="M256,210c-15.93,0-31.078-3.265-45-8.926V272h90v-70.926C287.078,206.736,271.93,210,256,210z"/>
	</g>
</g>
<g>
	<g>
		<path d="M256,0c-49.629,0-90,40.371-90,90c0,48.966,41.456,90,90,90c47.83,0,90-40.174,90-90C346,40.371,305.629,0,256,0z"/>
	</g>
</g>
<g>
	<g>
		<path d="M436,452H76c-8.284,0-15,6.714-15,15v30c0,8.291,6.709,15,15,15h360c8.291,0,15-6.709,15-15v-30
			C451,458.714,444.284,452,436,452z"/>
	</g>
</g>
<g>
	<g>
		<path d="M361,302c-5.314,0-204.428,0-210,0c-16.569,0-30,13.431-30,30h270C391,315.431,377.569,302,361,302z"/>
	</g>
</g>
<g>
</g>
<g>
</g>
<g>
</g>
<g>
</g>
<g>
</g>
<g>
</g>
<g>
</g>
<g>
</g>
<g>
</g>
<g>
</g>
<g>
</g>
<g>
</g>
<g>
</g>
<g>
</g>
<g>
</g>
</svg>
