<svg xmlns="http://www.w3.org/2000/svg" xmlns:xlink="http://www.w3.org/1999/xlink" viewBox="0 0 28.75 27"><defs><style>.cls-1{fill:none;}.cls-2{clip-path:url(#clip-path);}.cls-3{fill:#f6f6f6;}.cls-4,.cls-5{fill:#706f6f;}.cls-5{stroke:#fff;stroke-miterlimit:10;}</style><clipPath id="clip-path"><rect class="cls-1" x="-1272.79" y="-395.3" width="750" height="1334.03"/></clipPath></defs><title>48-58</title><g id="screen7"><g class="cls-2"><rect class="cls-3" x="-1834.11" y="-395.3" width="1922.99" height="1331.56"/></g></g><g id="screen9"><path class="cls-4" d="M14.39,4.62h2a.92.92,0,0,1,.92.92V7a.61.61,0,0,0,.33.55l.56.33a.64.64,0,0,0,.64,0L20,7.14a.92.92,0,0,1,1.26.33l1.83,3.16a1,1,0,0,1-.35,1.28c-.47.28-1,.55-1.43.82a.2.2,0,0,0-.11.19c0,.33,0,.65,0,1a.64.64,0,0,0,.32.56l1.21.72a.93.93,0,0,1,.32,1.28L21.23,19.6a.92.92,0,0,1-1.26.32l-1.24-.73a.62.62,0,0,0-.62,0l-.5.29a.64.64,0,0,0-.33.56v1.41a.93.93,0,0,1-.92.93h-4a.92.92,0,0,1-.92-.92V20a.62.62,0,0,0-.32-.55l-.51-.28a.62.62,0,0,0-.63,0l-1.23.73a.91.91,0,0,1-1.26-.32L5.64,16.44A.92.92,0,0,1,6,15.19l1.24-.73a.63.63,0,0,0,.31-.55q0-.5,0-1a.18.18,0,0,0-.11-.18L6,11.91a.92.92,0,0,1-.34-1.27L7.44,7.48a.94.94,0,0,1,1.28-.34l1.22.71a.62.62,0,0,0,.63,0l.58-.33A.62.62,0,0,0,11.47,7V5.56a.94.94,0,0,1,.93-.94Z"/><circle class="cls-5" cx="14.37" cy="13.5" r="4.17"/></g></svg>