<svg xmlns="http://www.w3.org/2000/svg" xmlns:xlink="http://www.w3.org/1999/xlink" viewBox="0 0 28.75 27"><defs><style>.cls-1{fill:none;}.cls-2{clip-path:url(#clip-path);}.cls-3{fill:#f6f6f6;}.cls-4,.cls-5{fill:#706f6f;}.cls-4{stroke:#fff;stroke-miterlimit:10;stroke-width:0.5px;}</style><clipPath id="clip-path"><rect class="cls-1" x="-1320.24" y="-350.3" width="750" height="1334.03"/></clipPath></defs><title>48-58</title><g id="screen7"><g class="cls-2"><rect class="cls-3" x="-1881.56" y="-350.3" width="1922.99" height="1331.56"/></g></g><g id="screen9"><path class="cls-4" d="M12.1,19.6H7.56a.94.94,0,0,1-.93-.68.89.89,0,0,1,.37-1,1.18,1.18,0,0,1,.61-.18c1.25,0,2.5,0,3.75,0,.05,0,.35,0,.35-.16s-.31-.16-.37-.16H6.67a1,1,0,1,1,0-1.9h4.68c.13,0,.33,0,.34-.16s-.2-.16-.33-.16H6.16a1,1,0,0,1-1-.75A.93.93,0,0,1,6,13.27h5.4c.14,0,.33,0,.34-.16s-.19-.17-.33-.17H6.92a1,1,0,0,1-.69-.23.89.89,0,0,1-.32-.95.92.92,0,0,1,.77-.7A1.94,1.94,0,0,1,7,11h6.82a.66.66,0,0,0,.2,0,.34.34,0,0,0,.21-.12c0-.05,0-.16-.1-.2-.44-.33-.89-.64-1.34-1a1.23,1.23,0,0,1-.55-1.1A1.22,1.22,0,0,1,13,7.53a1.15,1.15,0,0,1,1.28.14c1.6,1.25,2.14,1.7,3.76,2.93,1,.77,2.72,1.45,2.7,3.85a4.82,4.82,0,0,1-1.38,3.95,4.06,4.06,0,0,1-2.93,1.2Z"/><rect class="cls-5" x="15.61" y="10.61" width="6.83" height="9.2" rx="0.9" ry="0.9" transform="translate(3.81 34.23) rotate(-90)"/></g></svg>