<svg xmlns="http://www.w3.org/2000/svg" xmlns:xlink="http://www.w3.org/1999/xlink" viewBox="0 0 28.75 27"><defs><style>.cls-1{fill:none;}.cls-2{clip-path:url(#clip-path);}.cls-3{fill:#f6f6f6;}.cls-4,.cls-5{fill:#706f6f;}.cls-5{stroke:#f6f6f6;stroke-linecap:round;stroke-miterlimit:10;}.cls-6{fill:#fff;}</style><clipPath id="clip-path"><rect class="cls-1" x="-1305.87" y="-395.3" width="750" height="1334.03"/></clipPath></defs><title>48-58</title><g id="screen7"><g class="cls-2"><rect class="cls-3" x="-1867.18" y="-395.3" width="1922.99" height="1331.56"/></g></g><g id="screen9"><path class="cls-4" d="M23.51,18.06H5.24a9.14,9.14,0,0,1,18.27,0Z"/><path class="cls-5" d="M7.76,15.31a7.72,7.72,0,0,1,.65-1.2,7.35,7.35,0,0,1,.87-1,7.44,7.44,0,0,1,2.25-1.52,8.22,8.22,0,0,1,1.33-.41A7.46,7.46,0,0,1,14.29,11h.16a7.54,7.54,0,0,1,1.43.14,8.54,8.54,0,0,1,1.33.41,7,7,0,0,1,1.2.66,6.86,6.86,0,0,1,1.91,1.91,7,7,0,0,1,.66,1.2"/><path class="cls-6" d="M15.68,18.07H14.61l-1.5-3a.48.48,0,0,1,.21-.64.48.48,0,0,1,.64.22Z"/></g></svg>