<svg xmlns="http://www.w3.org/2000/svg" viewBox="0 0 56.78 56.78"><defs><style>.cls-1{fill:#fff;stroke:#1d1d1b;stroke-miterlimit:10;}.cls-2{fill:#14c6c6;}.cls-3{fill:#1d1d1b;}</style></defs><title>OTOBOTO divided to screens16-33</title><g id="bar"><rect class="cls-1" x="1" y="1" width="54.78" height="54.78" rx="27.39" ry="27.39"/><path class="cls-2" d="M28.39,47.45a.37.37,0,0,1-.26-.12l-14.32-15a9.52,9.52,0,0,1,0-13,8.53,8.53,0,0,1,12.4,0L27.4,20.6a1.39,1.39,0,0,0,1,.42,1.35,1.35,0,0,0,1-.43l1.19-1.24a8.53,8.53,0,0,1,12.4,0,9.53,9.53,0,0,1,0,13l-14.31,15A.42.42,0,0,1,28.39,47.45Z"/><path class="cls-3" d="M36.77,17.18A8,8,0,0,1,42.6,19.7,9,9,0,0,1,42.6,32l-1.81,1.89-12.4,13L16,33.92,14.17,32a9,9,0,0,1,0-12.33,8,8,0,0,1,11.68,0L27,20.94a1.86,1.86,0,0,0,2.7,0l1.19-1.24a8,8,0,0,1,5.84-2.52m0-1A9.09,9.09,0,0,0,30.2,19L29,20.25a.87.87,0,0,1-1.26,0L26.57,19a9,9,0,0,0-13.12,0,10,10,0,0,0,0,13.72l1.81,1.89L27.77,47.67a.82.82,0,0,0,.62.28.85.85,0,0,0,.63-.28L41.51,34.61l1.82-1.89a10,10,0,0,0,0-13.72,9.08,9.08,0,0,0-6.56-2.82Z"/></g></svg>