<svg xmlns="http://www.w3.org/2000/svg" viewBox="0 0 83.61 83.61"><defs><style>.cls-1{fill:#ffda80;}.cls-2{fill:#14c6c6;}.cls-2,.cls-3{stroke:#1d1d1b;stroke-miterlimit:10;stroke-width:2px;}.cls-3{fill:#fff;}</style></defs><title>14</title><g id="bar"><circle class="cls-1" cx="41.8" cy="41.8" r="41.8"/><path class="cls-2" d="M59.66,36.23a21.81,21.81,0,0,1-2.45,8.51A84.67,84.67,0,0,1,47,60.21q-2.19,2.74-4.5,5.38a1,1,0,0,1-1.58,0,132.66,132.66,0,0,1-9.09-11.5,75.69,75.69,0,0,1-5-8.09,24.25,24.25,0,0,1-3-8.67A19.29,19.29,0,0,1,31,20.8a17.37,17.37,0,0,1,10.69-3.74,17.91,17.91,0,0,1,14.83,8.28,19.48,19.48,0,0,1,3.14,9.33C59.68,35.19,59.68,35.71,59.66,36.23Z"/><circle class="cls-3" cx="41.69" cy="35.23" r="8.88"/></g></svg>