<svg xmlns="http://www.w3.org/2000/svg" xmlns:xlink="http://www.w3.org/1999/xlink" viewBox="0 0 34.36 31.5"><defs><style>.cls-1,.cls-4{fill:none;}.cls-2{clip-path:url(#clip-path);}.cls-3{fill:#f6f6f6;}.cls-4{stroke:#1d1d1b;stroke-linecap:round;stroke-miterlimit:10;}</style><clipPath id="clip-path"><rect class="cls-1" x="-1304.35" y="-551.63" width="750" height="1334.03"/></clipPath></defs><title>48-58</title><g id="screen7"><g class="cls-2"><rect class="cls-3" x="-1865.66" y="-551.63" width="1922.99" height="1331.56"/></g></g><g id="screen11"><path class="cls-4" d="M18.91,20.32a5.41,5.41,0,0,1-1.93.74,5.71,5.71,0,0,1-2.06,0,5.52,5.52,0,0,1-2-.86,5.31,5.31,0,0,1-1.47-1.56,5.43,5.43,0,0,1-.74-1.92,5.35,5.35,0,0,1,0-2.07,5.42,5.42,0,0,1,.86-2,5.54,5.54,0,0,1,1.55-1.47,5.41,5.41,0,0,1,1.93-.74,5.71,5.71,0,0,1,2.06,0,5.52,5.52,0,0,1,2,.86"/><line class="cls-4" x1="15.89" y1="15.75" x2="23.01" y2="15.75"/><path class="cls-4" d="M21.32,13.16l2.22,2.22a.53.53,0,0,1,0,.74l-2.22,2.22"/></g></svg>