<svg id="Layer_1" data-name="Layer 1" xmlns="http://www.w3.org/2000/svg" viewBox="0 0 38.52 32.63"><defs><style>.cls-1{fill:#1d1d1b;}</style></defs><title>1</title><path class="cls-1" d="M27.21,2.88a7.81,7.81,0,0,1,5.53,13.33L31,17.93,19.26,29.69,7.5,17.93,5.78,16.21A7.8,7.8,0,0,1,11.3,2.88a7.73,7.73,0,0,1,5.52,2.27L18,6.28a1.83,1.83,0,0,0,2.6,0l1.13-1.13a7.74,7.74,0,0,1,5.52-2.27m0-1A8.78,8.78,0,0,0,21,4.44L19.85,5.58a.84.84,0,0,1-.59.24.86.86,0,0,1-.6-.24L17.53,4.44A8.81,8.81,0,0,0,5.07,16.91l1.72,1.72L18.66,30.51a.86.86,0,0,0,.6.24.84.84,0,0,0,.59-.24L31.72,18.63l1.72-1.72a8.8,8.8,0,0,0-6.23-15Z"/></svg>