<svg id="Layer_1" data-name="Layer 1" xmlns="http://www.w3.org/2000/svg" viewBox="0 0 38.52 32.63"><defs><style>.cls-1{fill:#14c6c6;}.cls-2{fill:#1d1d1b;}</style></defs><title>1</title><path class="cls-1" d="M19.26,30.25a.31.31,0,0,1-.24-.1L5.42,16.56A8.3,8.3,0,0,1,11.3,2.38,8.26,8.26,0,0,1,17.18,4.8l1.13,1.13a1.34,1.34,0,0,0,1,.39,1.36,1.36,0,0,0,.95-.39L21.33,4.8A8.32,8.32,0,0,1,33.09,16.56L19.5,30.15A.33.33,0,0,1,19.26,30.25Z"/><path class="cls-2" d="M27.21,2.88a7.81,7.81,0,0,1,5.53,13.33L31,17.93,19.26,29.69,7.5,17.93,5.78,16.21A7.8,7.8,0,0,1,11.3,2.88a7.73,7.73,0,0,1,5.52,2.27L18,6.28a1.83,1.83,0,0,0,2.6,0l1.13-1.13a7.74,7.74,0,0,1,5.52-2.27m0-1A8.78,8.78,0,0,0,21,4.44L19.85,5.58a.84.84,0,0,1-.59.24.86.86,0,0,1-.6-.24L17.53,4.44A8.81,8.81,0,0,0,5.07,16.91l1.72,1.72L18.66,30.51a.86.86,0,0,0,.6.24.84.84,0,0,0,.59-.24L31.72,18.63l1.72-1.72a8.8,8.8,0,0,0-6.23-15Z"/></svg>