<svg xmlns="http://www.w3.org/2000/svg" viewBox="0 0 55.82 55.82"><defs><style>.cls-1{fill:#fff;}.cls-2{fill:#14c6c6;}.cls-3{fill:#1d1d1b;}</style></defs><title>OTOBOTO divided to screens16-33</title><g id="bar"><rect class="cls-1" width="55.82" height="55.82" rx="27.91" ry="27.91"/><rect class="cls-2" x="13.12" y="14.08" width="29.58" height="6.4" rx="0.83" ry="0.83"/><path class="cls-3" d="M41.87,14.58a.33.33,0,0,1,.33.33v4.75a.34.34,0,0,1-.33.33H14a.34.34,0,0,1-.33-.33V14.91a.33.33,0,0,1,.33-.33H41.87m0-1H14a1.34,1.34,0,0,0-1.33,1.33v4.75A1.34,1.34,0,0,0,14,21H41.87a1.34,1.34,0,0,0,1.33-1.33V14.91a1.34,1.34,0,0,0-1.33-1.33Z"/><rect class="cls-2" x="13.12" y="24.71" width="29.58" height="6.4" rx="0.83" ry="0.83"/><path class="cls-3" d="M41.87,25.21a.33.33,0,0,1,.33.33v4.74a.33.33,0,0,1-.33.33H14a.33.33,0,0,1-.33-.33V25.54a.33.33,0,0,1,.33-.33H41.87m0-1H14a1.34,1.34,0,0,0-1.33,1.33v4.74A1.34,1.34,0,0,0,14,31.61H41.87a1.34,1.34,0,0,0,1.33-1.33V25.54a1.34,1.34,0,0,0-1.33-1.33Z"/><rect class="cls-2" x="13.12" y="35.33" width="29.58" height="6.4" rx="0.83" ry="0.83"/><path class="cls-3" d="M41.87,35.83a.33.33,0,0,1,.33.33v4.75a.34.34,0,0,1-.33.33H14a.34.34,0,0,1-.33-.33V36.16a.33.33,0,0,1,.33-.33H41.87m0-1H14a1.34,1.34,0,0,0-1.33,1.33v4.75A1.34,1.34,0,0,0,14,42.24H41.87a1.34,1.34,0,0,0,1.33-1.33V36.16a1.34,1.34,0,0,0-1.33-1.33Z"/></g></svg>