<svg xmlns="http://www.w3.org/2000/svg" viewBox="0 0 33.52 28.88"><defs><style>.cls-1{fill:#fff;}.cls-2{fill:#1d1d1b;}</style></defs><title>OTOBOTO divided to screens16-33</title><g id="bar"><path class="cls-1" d="M16.76,28.38a.35.35,0,0,1-.24-.1L2.92,14.68A8.3,8.3,0,0,1,8.8.5a8.26,8.26,0,0,1,5.88,2.42l1.13,1.14a1.34,1.34,0,0,0,1,.39,1.32,1.32,0,0,0,.95-.4l1.12-1.13A8.32,8.32,0,0,1,30.59,14.68L17,28.28A.37.37,0,0,1,16.76,28.38Z"/><path class="cls-2" d="M24.71,1a7.81,7.81,0,0,1,5.53,13.33l-1.73,1.72L16.76,27.81,5,16.05,3.28,14.33A7.81,7.81,0,0,1,8.8,1a7.73,7.73,0,0,1,5.52,2.28l1.14,1.13a1.83,1.83,0,0,0,2.6,0l1.13-1.13A7.75,7.75,0,0,1,24.71,1m0-1a8.79,8.79,0,0,0-6.23,2.57L17.35,3.7a.81.81,0,0,1-.59.25.83.83,0,0,1-.6-.25L15,2.57A8.81,8.81,0,0,0,2.57,15l1.72,1.72L16.16,28.63a.83.83,0,0,0,.6.25.81.81,0,0,0,.59-.25L29.22,16.76,30.94,15A8.81,8.81,0,0,0,24.71,0Z"/></g></svg>