<svg xmlns="http://www.w3.org/2000/svg" xmlns:xlink="http://www.w3.org/1999/xlink" viewBox="0 0 55.82 55.82"><defs><style>.cls-1{fill:none;}.cls-2{clip-path:url(#clip-path);}.cls-3{fill:#f6f6f6;}.cls-4{fill:#fff;}.cls-5{fill:#1d1d1b;}</style><clipPath id="clip-path"><rect class="cls-1" x="-861.81" y="-1328.47" width="750" height="1334.03"/></clipPath></defs><title>OTOBOTO divided to screens16-33</title><g id="grass"><g class="cls-2"><rect class="cls-3" x="-1423.12" y="-1328.47" width="1922.99" height="1331.56"/></g></g><g id="bar"><rect class="cls-4" width="55.82" height="55.82" rx="27.91" ry="27.91"/><path class="cls-5" d="M41.87,14.51a.4.4,0,0,1,.4.4v4.75a.41.41,0,0,1-.4.4H14a.42.42,0,0,1-.41-.4V14.91a.41.41,0,0,1,.41-.4H41.87m0-.93H14a1.34,1.34,0,0,0-1.33,1.33v4.75A1.34,1.34,0,0,0,14,21H41.87a1.34,1.34,0,0,0,1.33-1.33V14.91a1.34,1.34,0,0,0-1.33-1.33Z"/><path class="cls-5" d="M41.87,25.13a.41.41,0,0,1,.4.41v4.74a.4.4,0,0,1-.4.4H14a.41.41,0,0,1-.41-.4V25.54a.42.42,0,0,1,.41-.41H41.87m0-.92H14a1.34,1.34,0,0,0-1.33,1.33v4.74A1.34,1.34,0,0,0,14,31.61H41.87a1.34,1.34,0,0,0,1.33-1.33V25.54a1.34,1.34,0,0,0-1.33-1.33Z"/><path class="cls-5" d="M41.87,35.76a.4.4,0,0,1,.4.4v4.75a.41.41,0,0,1-.4.4H14a.42.42,0,0,1-.41-.4V36.16a.41.41,0,0,1,.41-.4H41.87m0-.93H14a1.34,1.34,0,0,0-1.33,1.33v4.75A1.34,1.34,0,0,0,14,42.24H41.87a1.34,1.34,0,0,0,1.33-1.33V36.16a1.34,1.34,0,0,0-1.33-1.33Z"/></g></svg>