<svg xmlns="http://www.w3.org/2000/svg" xmlns:xlink="http://www.w3.org/1999/xlink" viewBox="0 0 207.52 175.88"><defs><style>.cls-1,.cls-14,.cls-6{fill:none;}.cls-2{isolation:isolate;}.cls-3{clip-path:url(#clip-path);}.cls-4{fill:#f6f6f6;}.cls-5{fill:#fff;}.cls-10,.cls-12,.cls-14,.cls-15,.cls-6,.cls-9{stroke:#1d1d1b;stroke-miterlimit:10;}.cls-14,.cls-6{stroke-linecap:round;}.cls-12,.cls-6,.cls-9{stroke-width:3.5px;}.cls-7{fill:#ff6328;}.cls-15,.cls-8{fill:#1d1d1b;}.cls-9{fill:#fbc44d;}.cls-10{fill:#f7eacd;}.cls-10,.cls-14{stroke-width:2.45px;}.cls-11{fill:#ffda80;}.cls-11,.cls-13{opacity:0.5;mix-blend-mode:multiply;}.cls-12,.cls-13{fill:#706f6f;}.cls-15{stroke-width:0.54px;}</style><clipPath id="clip-path"><rect class="cls-1" x="-1024.86" y="-1134.08" width="750" height="1334.03"/></clipPath></defs><title>OTOBOTO divided to screens16-33</title><g class="cls-2"><g id="grass"><g class="cls-3"><rect class="cls-4" x="-1586.18" y="-1134.08" width="1922.99" height="1331.56"/></g><path class="cls-5" d="M204.57,100.86a100.39,100.39,0,0,1-11.52,46.86c-.52,1-1.07,2-1.64,3a100.69,100.69,0,0,1-18.13,23.18c-.56.54-1.13,1.07-1.7,1.59H35.83l-1.52-1.41c-.55-.53-1.1-1.06-1.64-1.6-.93-.93-1.85-1.87-2.76-2.84a100.87,100.87,0,1,1,174.66-68.77Z"/><polyline class="cls-6" points="1.75 174.13 32.49 174.13 39.77 174.13 171.43 174.13 179.2 174.13 205.77 174.13"/><path class="cls-7" d="M100.78,44.75V29.28a6,6,0,1,1,5.86,0V44.75Z"/><path class="cls-8" d="M103.71,19.46a4.59,4.59,0,0,1,1.53,8.92v15h-3.07v-15a4.59,4.59,0,0,1,1.54-8.92m0-2.8A7.39,7.39,0,0,0,99.38,30V46.15H108V30a7.39,7.39,0,0,0-4.32-13.38Z"/><path class="cls-9" d="M170.24,105.93a66.54,66.54,0,1,0-133.07,0c0,.49,0,1,0,1.47h0v27.68a26.65,26.65,0,0,0,26.65,26.65h79.77a26.65,26.65,0,0,0,26.65-26.65V107.4h0C170.23,106.92,170.24,106.42,170.24,105.93Z"/><path class="cls-10" d="M149.1,117H59c-13.07-1.27-11.39-17-11.39-17h0c0-28.33,25.91-51.22,57.56-50.49,30.49.71,54.6,23.57,54.6,51v.09S161.24,117,149.1,117Z"/><path class="cls-11" d="M170.52,107.4h0v27.68a26.65,26.65,0,0,1-26.64,26.65H117.55a26.65,26.65,0,0,0,26.65-26.65V107.4h0c0-.49,0-1,0-1.47A66.56,66.56,0,0,0,90.84,40.7a66.55,66.55,0,0,1,79.69,65.23C170.53,106.42,170.53,106.91,170.52,107.4Z"/><rect class="cls-12" x="164.25" y="117" width="26.11" height="57.13" rx="13.06" ry="13.06"/><path class="cls-13" d="M190.36,130.06v31a13,13,0,0,1-18.12,12,13.11,13.11,0,0,0,8-12v-31a13,13,0,0,0-3.84-9.23,13.3,13.3,0,0,0-4.15-2.81,13.07,13.07,0,0,1,18.12,12Z"/><rect class="cls-12" x="17.54" y="117" width="26.11" height="57.13" rx="13.06" ry="13.06"/><path class="cls-13" d="M43.65,130.06v31a13,13,0,0,1-18.12,12,13.12,13.12,0,0,0,8-12v-31a13,13,0,0,0-3.83-9.23A13.3,13.3,0,0,0,25.53,118a13.07,13.07,0,0,1,18.12,12Z"/><path class="cls-14" d="M98.86,96s1.13,4.83,4.77,4.83,4.9-4.83,4.9-4.83"/><ellipse class="cls-15" cx="136.11" cy="87.1" rx="2.77" ry="4.44"/><circle class="cls-4" cx="136.62" cy="84.27" r="1.01"/><ellipse class="cls-15" cx="71.28" cy="87.1" rx="2.77" ry="4.44"/><circle class="cls-4" cx="71.79" cy="84.27" r="1.01"/><polyline class="cls-14" points="149.01 124.66 120.4 124.66 112.36 134.1"/><polyline class="cls-14" points="59.04 124.66 87.65 124.66 95.69 134.1"/></g></g></svg>