<svg xmlns="http://www.w3.org/2000/svg" xmlns:xlink="http://www.w3.org/1999/xlink" viewBox="0 0 750 531.3"><defs><style>.cls-1,.cls-10,.cls-15,.cls-18,.cls-6{fill:none;}.cls-2{isolation:isolate;}.cls-3{clip-path:url(#clip-path);}.cls-4{fill:#17bcb8;}.cls-5{fill:#14c6c6;}.cls-10,.cls-11,.cls-15,.cls-16,.cls-6{stroke:#1d1d1b;}.cls-15,.cls-18,.cls-6{stroke-linecap:round;}.cls-10,.cls-11,.cls-15,.cls-16,.cls-18,.cls-6{stroke-miterlimit:10;}.cls-10,.cls-18,.cls-6{stroke-width:5px;}.cls-7{fill:#ff6328;}.cls-16,.cls-8{fill:#1d1d1b;}.cls-9{fill:#fbc44d;}.cls-11{fill:#f7eacd;}.cls-11,.cls-15{stroke-width:3.5px;}.cls-12{opacity:0.5;mix-blend-mode:multiply;}.cls-13{fill:#ffda80;}.cls-14{fill:#706f6f;}.cls-16{stroke-width:0.77px;}.cls-17{fill:#f6f6f6;}.cls-18{stroke:#f6f6f6;}</style><clipPath id="clip-path"><rect class="cls-1" y="0.38" width="750" height="1334.03"/></clipPath></defs><title>OTOBOTO for export svg10</title><g class="cls-2"><g id="APP"><g class="cls-3"><rect class="cls-4" x="-558" y="427.66" width="1937" height="16"/><polygon class="cls-4" points="167 170.93 96 145.33 96 438.66 167 438.66 167 170.93"/><rect class="cls-5" x="104" y="188.66" width="56" height="5"/><rect class="cls-5" x="104" y="199.66" width="56" height="5"/><rect class="cls-5" x="104" y="210.66" width="56" height="5"/><rect class="cls-5" x="104" y="220.66" width="56" height="6"/><rect class="cls-5" x="104" y="231.66" width="56" height="6"/><rect class="cls-5" x="104" y="242.66" width="56" height="5"/><rect class="cls-5" x="104" y="253.66" width="56" height="5"/><rect class="cls-5" x="104" y="264.66" width="56" height="5"/><rect class="cls-5" x="104" y="286.66" width="56" height="6"/><rect class="cls-5" x="104" y="297.66" width="56" height="5"/><rect class="cls-5" x="104" y="308.66" width="56" height="5"/><rect class="cls-5" x="104" y="319.66" width="56" height="5"/><rect class="cls-5" x="104" y="329.66" width="56" height="6"/><rect class="cls-5" x="104" y="340.66" width="56" height="6"/><rect class="cls-5" x="104" y="351.66" width="56" height="5"/><rect class="cls-5" x="104" y="362.66" width="56" height="6"/><rect class="cls-5" x="104" y="384.66" width="56" height="7"/><rect class="cls-5" x="104" y="396.66" width="56" height="6"/><rect class="cls-5" x="104" y="407.66" width="56" height="5"/><path class="cls-4" d="M77,215.66v-29H50v-38H40v38H14v29H0v223H89v-223Zm-20-20h9v18H57ZM40,209.34V195.66H50v18H40ZM23,195.66h9v18H23Zm-7,214H7v-18h9Zm0-28H7v-19h9Zm0-28H7v-18h9Zm0-27H7v-18h9Zm0-27H7v-18h9Zm0-28H7v-18h9Zm0-27H7v-18h9Zm16,165H23v-18h9Zm0-28H23v-19h9Zm0-55H23v-18h9Zm0-55H23v-18h9Zm0-27H23v-18h9Zm18,165H40v-18H50Zm0-56H40v-18H50Zm0-27H40v-18H50Zm0-27H40v-18H50Zm0-28H40v-18H50Zm0-27H40v-18H50Zm16,165H57v-18h9Zm0-28H57v-19h9Zm0-28H57v-18h9Zm0-27H57v-18h9Zm0-27H57v-18h9Zm0-55H57v-18h9Zm16,165H73v-18h9Zm0-28H73v-19h9Zm0-28H73v-18h9Zm0-27H73v-18h9Zm0-27H73v-18h9Zm0-28H73v-18h9Zm0-27H73v-18h9Z"/><rect class="cls-5" x="7" y="226.66" width="9" height="18"/><rect class="cls-5" x="23" y="226.66" width="9" height="18"/><rect class="cls-5" x="40" y="226.66" width="10" height="18"/><rect class="cls-5" x="57" y="226.66" width="9" height="18"/><rect class="cls-5" x="73" y="226.66" width="9" height="18"/><rect class="cls-5" x="7" y="253.66" width="9" height="18"/><rect class="cls-5" x="23" y="253.66" width="9" height="18"/><rect class="cls-5" x="40" y="253.66" width="10" height="18"/><rect class="cls-5" x="73" y="253.66" width="9" height="18"/><rect class="cls-5" x="7" y="281.66" width="9" height="18"/><rect class="cls-5" x="40" y="281.66" width="10" height="18"/><rect class="cls-5" x="57" y="281.66" width="9" height="18"/><rect class="cls-5" x="73" y="281.66" width="9" height="18"/><rect class="cls-5" x="7" y="308.66" width="9" height="18"/><rect class="cls-5" x="23" y="308.66" width="9" height="18"/><rect class="cls-5" x="40" y="308.66" width="10" height="18"/><rect class="cls-5" x="57" y="308.66" width="9" height="18"/><rect class="cls-5" x="73" y="308.66" width="9" height="18"/><rect class="cls-5" x="7" y="335.66" width="9" height="18"/><rect class="cls-5" x="40" y="335.66" width="10" height="18"/><rect class="cls-5" x="57" y="335.66" width="9" height="18"/><rect class="cls-5" x="73" y="335.66" width="9" height="18"/><rect class="cls-5" x="7" y="362.66" width="9" height="19"/><rect class="cls-5" x="23" y="362.66" width="9" height="19"/><rect class="cls-5" x="57" y="362.66" width="9" height="19"/><rect class="cls-5" x="73" y="362.66" width="9" height="19"/><rect class="cls-5" x="7" y="391.66" width="9" height="18"/><rect class="cls-5" x="23" y="391.66" width="9" height="18"/><rect class="cls-5" x="40" y="391.66" width="10" height="18"/><rect class="cls-5" x="57" y="391.66" width="9" height="18"/><rect class="cls-5" x="73" y="391.66" width="9" height="18"/><rect class="cls-5" x="23" y="195.66" width="9" height="18"/><polygon class="cls-5" points="50 209.34 50 195.66 40 195.66 40 209.34 40 213.66 50 213.66 50 209.34"/><rect class="cls-5" x="57" y="195.66" width="9" height="18"/><rect class="cls-4" x="260.98" y="303.31" width="65.84" height="136.47"/><rect class="cls-5" x="268.3" y="317.24" width="21.95" height="5.49"/><rect class="cls-5" x="298.93" y="317.24" width="20.58" height="5.49"/><rect class="cls-5" x="268.3" y="331.88" width="21.95" height="5.49"/><rect class="cls-5" x="298.93" y="331.88" width="20.58" height="5.49"/><rect class="cls-5" x="268.3" y="346.51" width="21.95" height="5.49"/><rect class="cls-5" x="298.93" y="346.51" width="20.58" height="5.49"/><rect class="cls-5" x="268.3" y="361.14" width="21.95" height="5.49"/><rect class="cls-5" x="298.93" y="361.14" width="20.58" height="5.49"/><rect class="cls-5" x="298.93" y="375.77" width="20.58" height="5.49"/><rect class="cls-5" x="268.3" y="375.77" width="21.95" height="5.49"/><rect class="cls-5" x="268.3" y="390.4" width="21.95" height="5.49"/><rect class="cls-5" x="298.93" y="390.4" width="20.58" height="5.49"/><rect class="cls-5" x="268.3" y="405.03" width="21.95" height="5.49"/><rect class="cls-5" x="298.93" y="405.03" width="20.58" height="5.49"/><path class="cls-4" d="M217,278.66v-14h-9v14h-5v-23h-9v23H174v152h79v-152Zm0,140h-7v-9h7Zm0-13h-7v-9h7Zm0-12h-7v-10h7Zm0-14h-7v-9h7Zm0-13h-7v-10h7Zm0-13h-7v-9h7Zm0-13h-7v-9h7Zm0-12h-7v-9h7Zm0-13h-7v-9h7Zm0-13h-7v-9h7Zm15,116h-8v-9h8Zm0-13h-8v-9h8Zm0-12h-8v-10h8Zm0-14h-8v-9h8Zm0-13h-8v-10h8Zm0-13h-8v-9h8Zm0-13h-8v-9h8Zm0-12h-8v-9h8Zm0-13h-8v-9h8Zm0-13h-8v-9h8Z"/><rect class="cls-5" x="224" y="293.66" width="8" height="9"/><rect class="cls-5" x="224" y="306.66" width="8" height="9"/><rect class="cls-5" x="224" y="319.66" width="8" height="9"/><rect class="cls-5" x="224" y="331.66" width="8" height="9"/><rect class="cls-5" x="224" y="344.66" width="8" height="9"/><rect class="cls-5" x="224" y="356.66" width="8" height="10"/><rect class="cls-5" x="224" y="370.66" width="8" height="9"/><rect class="cls-5" x="224" y="383.66" width="8" height="10"/><rect class="cls-5" x="224" y="396.66" width="8" height="9"/><rect class="cls-5" x="224" y="409.66" width="8" height="9"/><rect class="cls-5" x="210" y="293.66" width="7" height="9"/><rect class="cls-5" x="210" y="306.66" width="7" height="9"/><rect class="cls-5" x="210" y="319.66" width="7" height="9"/><rect class="cls-5" x="210" y="331.66" width="7" height="9"/><rect class="cls-5" x="210" y="344.66" width="7" height="9"/><rect class="cls-5" x="210" y="356.66" width="7" height="10"/><rect class="cls-5" x="210" y="370.66" width="7" height="9"/><rect class="cls-5" x="210" y="383.66" width="7" height="10"/><rect class="cls-5" x="210" y="396.66" width="7" height="9"/><rect class="cls-5" x="210" y="409.66" width="7" height="9"/><rect class="cls-4" x="660.6" y="191.05" width="89.62" height="239.59"/><rect class="cls-5" x="669" y="222.66" width="12" height="13"/><rect class="cls-5" x="690" y="222.66" width="10" height="13"/><rect class="cls-5" x="728" y="222.66" width="11" height="13"/><rect class="cls-5" x="669" y="240.66" width="12" height="13"/><rect class="cls-5" x="690" y="240.66" width="10" height="13"/><rect class="cls-5" x="710" y="240.66" width="11" height="13"/><rect class="cls-5" x="728" y="240.66" width="11" height="13"/><rect class="cls-5" x="690" y="258.66" width="10" height="13"/><rect class="cls-5" x="710" y="258.66" width="11" height="13"/><rect class="cls-5" x="728" y="258.66" width="11" height="13"/><rect class="cls-5" x="669" y="276.66" width="12" height="14"/><rect class="cls-5" x="690" y="276.66" width="10" height="14"/><rect class="cls-5" x="728" y="276.66" width="11" height="14"/><rect class="cls-5" x="669" y="295.66" width="12" height="13"/><rect class="cls-5" x="690" y="295.66" width="10" height="13"/><rect class="cls-5" x="710" y="295.66" width="11" height="13"/><rect class="cls-5" x="728" y="295.66" width="11" height="13"/><rect class="cls-5" x="690" y="313.66" width="10" height="13"/><rect class="cls-5" x="710" y="313.66" width="11" height="13"/><rect class="cls-5" x="728" y="313.66" width="11" height="13"/><rect class="cls-5" x="669" y="331.66" width="12" height="13"/><rect class="cls-5" x="710" y="331.66" width="11" height="13"/><rect class="cls-5" x="728" y="331.66" width="11" height="13"/><rect class="cls-5" x="669" y="349.66" width="12" height="13"/><rect class="cls-5" x="690" y="349.66" width="10" height="13"/><rect class="cls-5" x="710" y="349.66" width="11" height="13"/><rect class="cls-5" x="728" y="349.66" width="11" height="13"/><rect class="cls-5" x="580" y="386.66" width="12" height="14"/><path class="cls-4" d="M638,226.66v-36H614v-21h-7v21H584v36H571v208h78v-208Zm-16-24h7v15h-7Zm-15,0h7v15h-7Zm-15,0h7v15h-7Zm7,201h-7v-15h7Zm0-26h-7v-15h7Zm0-26h-7v-14h7Zm0-25h-7v-15h7Zm0-25h-7v-15h7Zm0-27h-7v-14h7Zm0-25h-7v-14h7Zm15,154h-7v-15h7Zm0-26h-7v-15h7Zm0-26h-7v-14h7Zm0-25h-7v-15h7Zm0-25h-7v-15h7Zm0-27h-7v-14h7Zm0-25h-7v-14h7Zm15,154h-7v-15h7Zm0-26h-7v-15h7Zm0-26h-7v-14h7Zm0-25h-7v-15h7Zm0-25h-7v-15h7Zm0-27h-7v-14h7Zm0-25h-7v-14h7Z"/><rect class="cls-5" x="592" y="235.66" width="7" height="14"/><rect class="cls-5" x="607" y="235.66" width="7" height="14"/><rect class="cls-5" x="622" y="235.66" width="7" height="14"/><rect class="cls-5" x="592" y="260.66" width="7" height="14"/><rect class="cls-5" x="607" y="260.66" width="7" height="14"/><rect class="cls-5" x="622" y="260.66" width="7" height="14"/><rect class="cls-5" x="592" y="286.66" width="7" height="15"/><rect class="cls-5" x="607" y="286.66" width="7" height="15"/><rect class="cls-5" x="622" y="286.66" width="7" height="15"/><rect class="cls-5" x="592" y="311.66" width="7" height="15"/><rect class="cls-5" x="607" y="311.66" width="7" height="15"/><rect class="cls-5" x="622" y="311.66" width="7" height="15"/><rect class="cls-5" x="592" y="337.66" width="7" height="14"/><rect class="cls-5" x="607" y="337.66" width="7" height="14"/><rect class="cls-5" x="622" y="337.66" width="7" height="14"/><rect class="cls-5" x="592" y="362.66" width="7" height="15"/><rect class="cls-5" x="607" y="362.66" width="7" height="15"/><rect class="cls-5" x="622" y="362.66" width="7" height="15"/><rect class="cls-5" x="592" y="388.66" width="7" height="15"/><rect class="cls-5" x="607" y="388.66" width="7" height="15"/><rect class="cls-5" x="622" y="388.66" width="7" height="15"/><rect class="cls-5" x="592" y="202.66" width="7" height="15"/><rect class="cls-5" x="607" y="202.66" width="7" height="15"/><rect class="cls-5" x="622" y="202.66" width="7" height="15"/><path class="cls-4" d="M544,302.66v-31h6.56A35.61,35.61,0,0,0,519,236.49V219.66h-7V236.3c-16,1.41-32.16,17.36-32.16,35.36H485v31H470v25.49c-6-9.45-15-16-27-16.86V299.66h-8v11.82c-16,2.24-30.14,17.18-30.14,35.18H409v86h71v-3h79v-127Zm-48-1v-27h5v27Zm21,0h-5v-27h5Zm11,0v-27h6v27Zm-102,92h-5v-27h5Zm17,0h-6v-27h6Zm16,0h-6v-27h6Zm42,0h-5v-27h5Zm0-47h-5v-26h5Zm16,47h-5v-27h5Zm0-47h-5v-26h5Zm17,47h-6v-27h6Zm0-47h-6v-26h6Z"/><rect class="cls-5" x="496" y="274.66" width="5" height="27"/><polygon class="cls-5" points="512 278.84 512 301.66 517 301.66 517 274.66 512 274.66 512 278.84"/><rect class="cls-5" x="528" y="274.66" width="6" height="27"/><rect class="cls-5" x="496" y="320.66" width="5" height="26"/><rect class="cls-5" x="512" y="320.66" width="5" height="26"/><rect class="cls-5" x="528" y="320.66" width="6" height="26"/><rect class="cls-5" x="421" y="366.66" width="5" height="27"/><rect class="cls-5" x="437" y="366.66" width="6" height="27"/><rect class="cls-5" x="453" y="366.66" width="6" height="27"/><rect class="cls-5" x="496" y="366.66" width="5" height="27"/><rect class="cls-5" x="512" y="366.66" width="5" height="27"/><rect class="cls-5" x="528" y="366.66" width="6" height="27"/><rect class="cls-4" x="336" y="314.66" width="61" height="115"/><rect class="cls-5" x="343" y="315.66" width="8" height="13"/><rect class="cls-5" x="369" y="315.66" width="8" height="13"/><rect class="cls-5" x="382" y="315.66" width="7" height="13"/><rect class="cls-5" x="343" y="335.66" width="8" height="12"/><rect class="cls-5" x="356" y="335.66" width="7" height="12"/><rect class="cls-5" x="369" y="335.66" width="8" height="12"/><rect class="cls-5" x="343" y="355.66" width="8" height="15"/><rect class="cls-5" x="369" y="355.66" width="8" height="15"/><rect class="cls-5" x="382" y="355.66" width="7" height="15"/><rect class="cls-5" x="343" y="377.66" width="8" height="14"/><rect class="cls-5" x="356" y="377.66" width="7" height="14"/><rect class="cls-5" x="382" y="377.66" width="7" height="14"/></g><polyline class="cls-6" points="205.77 485.81 271.02 485.81 281.44 485.81 469.73 485.81 480.84 485.81 539.97 485.81"/><path class="cls-7" d="M368.68,300.78V278.65a8.57,8.57,0,1,1,8.38,0v22.13Z"/><path class="cls-8" d="M372.87,264.61a6.57,6.57,0,0,1,2.19,12.76v21.41h-4.38V277.37a6.57,6.57,0,0,1,2.19-12.76m0-4a10.56,10.56,0,0,0-6.19,19.13v23h12.38v-23a10.56,10.56,0,0,0-6.19-19.13Z"/><path class="cls-9" d="M468,388.28a95.16,95.16,0,1,0-190.31,0c0,.71,0,1.41,0,2.11h0V430a38.12,38.12,0,0,0,38.11,38.12H429.91A38.12,38.12,0,0,0,468,430V390.39h0C468,389.69,468,389,468,388.28Z"/><path class="cls-10" d="M468,388.28a95.16,95.16,0,1,0-190.31,0c0,.71,0,1.41,0,2.11h0V430a38.12,38.12,0,0,0,38.11,38.12H429.91A38.12,38.12,0,0,0,468,430V390.39h0C468,389.69,468,389,468,388.28Z"/><path class="cls-11" d="M437.79,404.11H309c-18.69-1.81-16.29-24.26-16.29-24.26h0c0-40.53,37.06-73.26,82.32-72.21,43.6,1,78.09,33.71,78.09,73v.13S455.16,404.11,437.79,404.11Z"/><g class="cls-12"><path class="cls-13" d="M468.42,390.39h0V430a38.12,38.12,0,0,1-38.11,38.12H392.66A38.12,38.12,0,0,0,430.78,430V390.39h0c0-.7,0-1.4,0-2.11A95.19,95.19,0,0,0,354.46,295a95.2,95.2,0,0,1,114,93.29C468.44,389,468.43,389.69,468.42,390.39Z"/></g><rect class="cls-14" x="459.46" y="404.11" width="37.35" height="81.71" rx="18.67" ry="18.67"/><rect class="cls-10" x="459.46" y="404.11" width="37.35" height="81.71" rx="18.67" ry="18.67"/><g class="cls-12"><path class="cls-14" d="M496.81,422.79v44.36a18.66,18.66,0,0,1-25.92,17.2,18.76,18.76,0,0,0,11.42-17.2V422.79a18.64,18.64,0,0,0-5.48-13.19,18.9,18.9,0,0,0-5.94-4,18.6,18.6,0,0,1,20.44,4A18.64,18.64,0,0,1,496.81,422.79Z"/></g><rect class="cls-14" x="249.64" y="404.11" width="37.35" height="81.71" rx="18.67" ry="18.67"/><rect class="cls-10" x="249.64" y="404.11" width="37.35" height="81.71" rx="18.67" ry="18.67"/><g class="cls-12"><path class="cls-14" d="M287,422.79v44.36a18.66,18.66,0,0,1-25.92,17.2,18.76,18.76,0,0,0,11.42-17.2V422.79A18.64,18.64,0,0,0,267,409.6a18.9,18.9,0,0,0-5.94-4,18.6,18.6,0,0,1,20.44,4A18.64,18.64,0,0,1,287,422.79Z"/></g><path class="cls-15" d="M366,374.08s1.6,6.91,6.81,6.91,7-6.91,7-6.91"/><ellipse class="cls-16" cx="419.22" cy="361.35" rx="3.96" ry="6.34"/><circle class="cls-17" cx="419.95" cy="357.3" r="1.44"/><ellipse class="cls-16" cx="326.49" cy="361.35" rx="3.96" ry="6.34"/><circle class="cls-17" cx="327.22" cy="357.3" r="1.44"/><polyline class="cls-15" points="437.66 415.07 396.75 415.07 385.25 428.57"/><polyline class="cls-15" points="309 415.07 349.91 415.07 361.41 428.57"/><polyline class="cls-6" points="517.72 461.75 574.9 461.75 574.9 461.75"/><polyline class="cls-6" points="135.45 461.75 234.36 461.75 234.36 461.75"/><polyline class="cls-6" points="603.9 461.75 620.42 461.75 630.33 461.75"/><polyline class="cls-6" points="497 443.75 558.83 443.75 669.34 443.75"/><polyline class="cls-6" points="80.66 443.75 137.84 443.75 248.35 443.75"/><path class="cls-17" d="M566.19,297a2,2,0,0,0,1.95-1.76,15.35,15.35,0,0,1,24.28-10.41,23.7,23.7,0,1,1,45.81,9.49,2,2,0,0,0,1.83,2.68h15.27a1.92,1.92,0,0,1,1.91,1.91h0a1.91,1.91,0,0,1-1.91,1.91H552.48a1.91,1.91,0,0,1-1.91-1.91h0a1.92,1.92,0,0,1,1.91-1.91Z"/><path class="cls-17" d="M170.56,206.92H157.4a2.81,2.81,0,0,1-2.77-2.2,22.52,22.52,0,0,0-43.7-1.37A15,15,0,0,0,84,209.94a1.73,1.73,0,0,0,1.7,2h84.87a2.5,2.5,0,0,0,2.5-2.5h0A2.5,2.5,0,0,0,170.56,206.92Z"/><path class="cls-17" d="M152,343.1h9.89a2.1,2.1,0,0,0,2.08-1.65,16.93,16.93,0,0,1,32.86-1,11.28,11.28,0,0,1,20.26,5,1.3,1.3,0,0,1-1.28,1.5H152A1.89,1.89,0,0,1,150.1,345h0A1.89,1.89,0,0,1,152,343.1Z"/><line class="cls-18" x1="163.26" y1="225" x2="203.93" y2="225"/></g></g></svg>