<svg xmlns="http://www.w3.org/2000/svg" viewBox="0 0 1849.57 296.31"><defs><style>.cls-1{fill:#17bcb8;}.cls-2{fill:#14c6c6;}</style></defs><title>OTOBOTO for export svg</title><g id="bar"><rect class="cls-1" y="280.31" width="1849.57" height="16"/><rect class="cls-1" x="420.07" y="33.31" width="89" height="258"/><rect class="cls-2" x="443.07" y="62.31" width="9" height="34"/><rect class="cls-2" x="460.07" y="62.31" width="9" height="34"/><rect class="cls-2" x="477.07" y="62.31" width="9" height="34"/><rect class="cls-2" x="493.07" y="62.31" width="9" height="34"/><rect class="cls-2" x="427.07" y="103.31" width="9" height="35"/><rect class="cls-2" x="443.07" y="103.31" width="9" height="35"/><rect class="cls-2" x="477.07" y="103.31" width="9" height="35"/><rect class="cls-2" x="427.07" y="146.31" width="9" height="34"/><rect class="cls-2" x="443.07" y="146.31" width="9" height="34"/><rect class="cls-2" x="460.07" y="146.31" width="9" height="34"/><rect class="cls-2" x="477.07" y="146.31" width="9" height="34"/><rect class="cls-2" x="493.07" y="146.31" width="9" height="34"/><rect class="cls-2" x="427.07" y="187.31" width="9" height="34"/><rect class="cls-2" x="460.07" y="187.31" width="9" height="34"/><rect class="cls-2" x="477.07" y="187.31" width="9" height="34"/><rect class="cls-2" x="493.07" y="187.31" width="9" height="34"/><rect class="cls-2" x="427.07" y="228.31" width="9" height="36"/><rect class="cls-2" x="443.07" y="228.31" width="9" height="36"/><rect class="cls-2" x="460.07" y="228.31" width="9" height="36"/><rect class="cls-2" x="493.07" y="228.31" width="9" height="36"/><rect class="cls-1" x="153.07" y="85.31" width="70" height="206"/><rect class="cls-2" x="159.07" y="109.31" width="9" height="12"/><rect class="cls-2" x="186.07" y="109.31" width="7" height="12"/><rect class="cls-2" x="198.07" y="109.31" width="7" height="12"/><rect class="cls-2" x="213.07" y="109.31" width="5" height="12"/><rect class="cls-2" x="159.07" y="125.31" width="9" height="15"/><rect class="cls-2" x="173.07" y="125.31" width="7" height="15"/><rect class="cls-2" x="186.07" y="125.31" width="7" height="15"/><rect class="cls-2" x="213.07" y="125.31" width="5" height="15"/><rect class="cls-2" x="159.07" y="142.31" width="9" height="14"/><rect class="cls-2" x="186.07" y="142.31" width="7" height="14"/><rect class="cls-2" x="198.07" y="142.31" width="7" height="14"/><rect class="cls-2" x="213.07" y="142.31" width="5" height="14"/><rect class="cls-2" x="159.07" y="160.31" width="9" height="14"/><rect class="cls-2" x="173.07" y="160.31" width="7" height="14"/><rect class="cls-2" x="186.07" y="160.31" width="7" height="14"/><rect class="cls-2" x="198.07" y="160.31" width="7" height="14"/><rect class="cls-2" x="213.07" y="160.31" width="5" height="14"/><rect class="cls-2" x="159.07" y="176.31" width="9" height="15"/><rect class="cls-2" x="186.07" y="176.31" width="7" height="15"/><rect class="cls-2" x="213.07" y="176.31" width="5" height="15"/><rect class="cls-2" x="159.07" y="194.31" width="9" height="15"/><rect class="cls-2" x="186.07" y="194.31" width="7" height="15"/><rect class="cls-2" x="198.07" y="194.31" width="7" height="15"/><rect class="cls-2" x="213.07" y="194.31" width="5" height="15"/><rect class="cls-2" x="159.07" y="210.31" width="9" height="13"/><rect class="cls-2" x="173.07" y="210.31" width="7" height="13"/><rect class="cls-2" x="186.07" y="210.31" width="7" height="13"/><rect class="cls-2" x="213.07" y="210.31" width="5" height="13"/><rect class="cls-2" x="186.07" y="227.31" width="7" height="14"/><rect class="cls-2" x="198.07" y="227.31" width="7" height="14"/><rect class="cls-2" x="159.07" y="244.31" width="9" height="16"/><rect class="cls-2" x="173.07" y="244.31" width="7" height="16"/><rect class="cls-2" x="186.07" y="244.31" width="7" height="16"/><rect class="cls-2" x="198.07" y="244.31" width="7" height="16"/><rect class="cls-2" x="213.07" y="244.31" width="5" height="16"/><rect class="cls-2" x="159.07" y="262.31" width="9" height="14"/><rect class="cls-2" x="186.07" y="262.31" width="7" height="14"/><rect class="cls-2" x="213.07" y="262.31" width="5" height="14"/><rect class="cls-1" x="331.07" y="58.31" width="80" height="233"/><rect class="cls-2" x="353.07" y="85.31" width="7" height="31"/><rect class="cls-2" x="382.07" y="85.31" width="7" height="31"/><rect class="cls-2" x="396.07" y="85.31" width="8" height="31"/><rect class="cls-2" x="353.07" y="123.31" width="7" height="32"/><rect class="cls-2" x="368.07" y="123.31" width="7" height="32"/><rect class="cls-2" x="396.07" y="123.31" width="8" height="32"/><rect class="cls-2" x="353.07" y="160.31" width="7" height="31"/><rect class="cls-2" x="382.07" y="160.31" width="7" height="31"/><rect class="cls-2" x="396.07" y="160.31" width="8" height="31"/><rect class="cls-2" x="353.07" y="198.31" width="7" height="30"/><rect class="cls-2" x="368.07" y="198.31" width="7" height="30"/><rect class="cls-2" x="396.07" y="198.31" width="8" height="30"/><rect class="cls-2" x="368.07" y="234.31" width="7" height="33"/><rect class="cls-2" x="396.07" y="234.31" width="8" height="33"/><polygon class="cls-1" points="684.07 25.44 614.07 0 614.07 291.31 684.07 291.31 684.07 25.44"/><rect class="cls-2" x="622.07" y="42.31" width="55" height="5"/><rect class="cls-2" x="622.07" y="53.31" width="55" height="5"/><rect class="cls-2" x="622.07" y="64.31" width="55" height="5"/><rect class="cls-2" x="622.07" y="74.31" width="55" height="6"/><rect class="cls-2" x="622.07" y="85.31" width="55" height="6"/><rect class="cls-2" x="622.07" y="96.31" width="55" height="5"/><rect class="cls-2" x="622.07" y="107.31" width="55" height="5"/><rect class="cls-2" x="622.07" y="118.31" width="55" height="5"/><rect class="cls-2" x="622.07" y="140.31" width="55" height="6"/><rect class="cls-2" x="622.07" y="151.31" width="55" height="5"/><rect class="cls-2" x="622.07" y="162.31" width="55" height="5"/><rect class="cls-2" x="622.07" y="173.31" width="55" height="5"/><rect class="cls-2" x="622.07" y="183.31" width="55" height="6"/><rect class="cls-2" x="622.07" y="194.31" width="55" height="6"/><rect class="cls-2" x="622.07" y="205.31" width="55" height="5"/><rect class="cls-2" x="622.07" y="216.31" width="55" height="5"/><rect class="cls-2" x="622.07" y="237.31" width="55" height="7"/><rect class="cls-2" x="622.07" y="249.31" width="55" height="6"/><rect class="cls-2" x="622.07" y="260.31" width="55" height="5"/><path class="cls-1" d="M293.07,33.31v-23h-51v23h-10v258h90v-258Zm-38,225h-13v-12h13Zm0-19h-13v-12h13Zm0-36h-13v-12h13Zm0-18h-13v-12h13Zm0-18h-13v-12h13Zm0-18h-13v-12h13Zm0-37h-13v-12h13Zm0-18h-13v-12h13Zm0-18h-13v-12h13Zm18,163h-11v-12h11Zm0-18h-11v-12h11Zm0-18h-11v-12h11Zm0-18h-11v-12h11Zm0-18h-11v-12h11Zm0-18h-11v-12h11Zm0-19h-11v-12h11Zm0-18h-11v-12h11Zm0-36h-11v-12h11Zm20,182h-11v-12h11Zm0-19h-11v-12h11Zm0-18h-11v-12h11Zm0-18h-11v-12h11Zm0-36h-11v-12h11Zm0-18h-11v-12h11Zm0-19h-11v-12h11Zm0-18h-11v-12h11Zm0-18h-11v-12h11Zm0-18h-11v-12h11Zm18,182h-11v-12h11Zm0-37h-11v-12h11Zm0-18h-11v-12h11Zm0-18h-11v-12h11Zm0-18h-11v-12h11Zm0-18h-11v-12h11Zm0-19h-11v-12h11Zm0-18h-11v-12h11Zm0-36h-11v-12h11Z"/><rect class="cls-2" x="242.07" y="64.31" width="13" height="12"/><rect class="cls-2" x="262.07" y="64.31" width="11" height="12"/><rect class="cls-2" x="282.07" y="64.31" width="11" height="12"/><rect class="cls-2" x="300.07" y="64.31" width="11" height="12"/><rect class="cls-2" x="242.07" y="82.31" width="13" height="12"/><rect class="cls-2" x="282.07" y="82.31" width="11" height="12"/><rect class="cls-2" x="242.07" y="100.31" width="13" height="12"/><rect class="cls-2" x="262.07" y="100.31" width="11" height="12"/><rect class="cls-2" x="282.07" y="100.31" width="11" height="12"/><rect class="cls-2" x="300.07" y="100.31" width="11" height="12"/><rect class="cls-2" x="262.07" y="118.31" width="11" height="12"/><rect class="cls-2" x="282.07" y="118.31" width="11" height="12"/><rect class="cls-2" x="300.07" y="118.31" width="11" height="12"/><rect class="cls-2" x="242.07" y="137.31" width="13" height="12"/><rect class="cls-2" x="262.07" y="137.31" width="11" height="12"/><rect class="cls-2" x="282.07" y="137.31" width="11" height="12"/><rect class="cls-2" x="300.07" y="137.31" width="11" height="12"/><rect class="cls-2" x="242.07" y="155.31" width="13" height="12"/><rect class="cls-2" x="262.07" y="155.31" width="11" height="12"/><rect class="cls-2" x="282.07" y="155.31" width="11" height="12"/><rect class="cls-2" x="300.07" y="155.31" width="11" height="12"/><rect class="cls-2" x="242.07" y="173.31" width="13" height="12"/><rect class="cls-2" x="262.07" y="173.31" width="11" height="12"/><rect class="cls-2" x="300.07" y="173.31" width="11" height="12"/><rect class="cls-2" x="242.07" y="191.31" width="13" height="12"/><rect class="cls-2" x="262.07" y="191.31" width="11" height="12"/><rect class="cls-2" x="282.07" y="191.31" width="11" height="12"/><rect class="cls-2" x="300.07" y="191.31" width="11" height="12"/><rect class="cls-2" x="262.07" y="209.31" width="11" height="12"/><rect class="cls-2" x="282.07" y="209.31" width="11" height="12"/><rect class="cls-2" x="300.07" y="209.31" width="11" height="12"/><rect class="cls-2" x="242.07" y="227.31" width="13" height="12"/><rect class="cls-2" x="262.07" y="227.31" width="11" height="12"/><rect class="cls-2" x="282.07" y="227.31" width="11" height="12"/><rect class="cls-2" x="242.07" y="246.31" width="13" height="12"/><rect class="cls-2" x="282.07" y="246.31" width="11" height="12"/><rect class="cls-2" x="300.07" y="246.31" width="11" height="12"/><path class="cls-1" d="M595.07,69.31v-29h-27v-37h-10v37h-26v29h-14v222h89v-222Zm-20-20h9v18h-9Zm-17,14.28V49.31h10v18h-10Zm-17-14.28h9v18h-9Zm-7,213h-9v-18h9Zm0-28h-9v-18h9Zm0-27h-9v-18h9Zm0-27h-9v-18h9Zm0-27h-9v-18h9Zm0-28h-9v-18h9Zm0-27h-9v-18h9Zm16,164h-9v-18h9Zm0-28h-9v-18h9Zm0-54h-9v-18h9Zm0-55h-9v-18h9Zm0-27h-9v-18h9Zm18,164h-10v-18h10Zm0-55h-10v-18h10Zm0-27h-10v-18h10Zm0-27h-10v-18h10Zm0-28h-10v-18h10Zm0-27h-10v-18h10Zm16,164h-9v-18h9Zm0-28h-9v-18h9Zm0-27h-9v-18h9Zm0-27h-9v-18h9Zm0-27h-9v-18h9Zm0-55h-9v-18h9Zm16,164h-9v-18h9Zm0-28h-9v-18h9Zm0-27h-9v-18h9Zm0-27h-9v-18h9Zm0-27h-9v-18h9Zm0-28h-9v-18h9Zm0-27h-9v-18h9Z"/><rect class="cls-2" x="525.07" y="80.31" width="9" height="18"/><rect class="cls-2" x="541.07" y="80.31" width="9" height="18"/><rect class="cls-2" x="558.07" y="80.31" width="10" height="18"/><rect class="cls-2" x="575.07" y="80.31" width="9" height="18"/><rect class="cls-2" x="591.07" y="80.31" width="9" height="18"/><rect class="cls-2" x="525.07" y="107.31" width="9" height="18"/><rect class="cls-2" x="541.07" y="107.31" width="9" height="18"/><rect class="cls-2" x="558.07" y="107.31" width="10" height="18"/><rect class="cls-2" x="591.07" y="107.31" width="9" height="18"/><rect class="cls-2" x="525.07" y="135.31" width="9" height="18"/><rect class="cls-2" x="558.07" y="135.31" width="10" height="18"/><rect class="cls-2" x="575.07" y="135.31" width="9" height="18"/><rect class="cls-2" x="591.07" y="135.31" width="9" height="18"/><rect class="cls-2" x="525.07" y="162.31" width="9" height="18"/><rect class="cls-2" x="541.07" y="162.31" width="9" height="18"/><rect class="cls-2" x="558.07" y="162.31" width="10" height="18"/><rect class="cls-2" x="575.07" y="162.31" width="9" height="18"/><rect class="cls-2" x="591.07" y="162.31" width="9" height="18"/><rect class="cls-2" x="525.07" y="189.31" width="9" height="18"/><rect class="cls-2" x="558.07" y="189.31" width="10" height="18"/><rect class="cls-2" x="575.07" y="189.31" width="9" height="18"/><rect class="cls-2" x="591.07" y="189.31" width="9" height="18"/><rect class="cls-2" x="525.07" y="216.31" width="9" height="18"/><rect class="cls-2" x="541.07" y="216.31" width="9" height="18"/><rect class="cls-2" x="575.07" y="216.31" width="9" height="18"/><rect class="cls-2" x="591.07" y="216.31" width="9" height="18"/><rect class="cls-2" x="525.07" y="244.31" width="9" height="18"/><rect class="cls-2" x="541.07" y="244.31" width="9" height="18"/><rect class="cls-2" x="558.07" y="244.31" width="10" height="18"/><rect class="cls-2" x="575.07" y="244.31" width="9" height="18"/><rect class="cls-2" x="591.07" y="244.31" width="9" height="18"/><rect class="cls-2" x="541.07" y="49.31" width="9" height="18"/><polygon class="cls-2" points="568.07 63.59 568.07 49.31 558.07 49.31 558.07 63.59 558.07 67.31 568.07 67.31 568.07 63.59"/><rect class="cls-2" x="575.07" y="49.31" width="9" height="18"/><rect class="cls-1" x="777.66" y="161.7" width="65.41" height="130.81"/><rect class="cls-2" x="784.93" y="170.78" width="21.8" height="5.45"/><rect class="cls-2" x="815.36" y="170.78" width="20.44" height="5.45"/><rect class="cls-2" x="784.93" y="185.32" width="21.8" height="5.45"/><rect class="cls-2" x="815.36" y="185.32" width="20.44" height="5.45"/><rect class="cls-2" x="784.93" y="199.85" width="21.8" height="5.45"/><rect class="cls-2" x="815.36" y="199.85" width="20.44" height="5.45"/><rect class="cls-2" x="784.93" y="214.39" width="21.8" height="5.45"/><rect class="cls-2" x="815.36" y="214.39" width="20.44" height="5.45"/><rect class="cls-2" x="815.36" y="228.92" width="20.44" height="5.45"/><rect class="cls-2" x="784.93" y="228.92" width="21.8" height="5.45"/><rect class="cls-2" x="784.93" y="243.46" width="21.8" height="5.45"/><rect class="cls-2" x="815.36" y="243.46" width="20.44" height="5.45"/><rect class="cls-2" x="784.93" y="257.99" width="21.8" height="5.45"/><rect class="cls-2" x="815.36" y="257.99" width="20.44" height="5.45"/><rect class="cls-1" x="5.5" y="161.7" width="65.41" height="130.81"/><rect class="cls-2" x="13.9" y="170.78" width="13.04" height="5.45"/><rect class="cls-2" x="32.09" y="170.78" width="12.23" height="5.45"/><rect class="cls-2" x="32.09" y="185.32" width="12.23" height="5.45"/><rect class="cls-2" x="13.9" y="199.85" width="13.04" height="5.45"/><rect class="cls-2" x="32.09" y="199.85" width="12.23" height="5.45"/><rect class="cls-2" x="13.9" y="214.39" width="13.04" height="5.45"/><rect class="cls-2" x="32.09" y="214.39" width="12.23" height="5.45"/><rect class="cls-2" x="32.09" y="228.92" width="12.23" height="5.45"/><rect class="cls-2" x="13.9" y="243.46" width="13.04" height="5.45"/><rect class="cls-2" x="32.09" y="243.46" width="12.23" height="5.45"/><rect class="cls-2" x="13.9" y="257.99" width="13.04" height="5.45"/><rect class="cls-2" x="48.42" y="170.78" width="13.04" height="5.45"/><rect class="cls-2" x="48.42" y="185.32" width="13.04" height="5.45"/><rect class="cls-2" x="48.42" y="214.39" width="13.04" height="5.45"/><rect class="cls-2" x="48.42" y="228.92" width="13.04" height="5.45"/><rect class="cls-2" x="48.42" y="243.46" width="13.04" height="5.45"/><rect class="cls-2" x="32.09" y="257.99" width="12.23" height="5.45"/><path class="cls-1" d="M98.07,132.31v3h-9v-3h-11v151h66v-151Zm39,117h-51v-5h51Zm0-15h-51v-6h51Zm0-15h-51v-5h51Zm0-14h-51v-5h51Zm0-14h-51v-6h51Zm0-15h-51v-5h51Zm0-14h-51v-6h51Zm0-15h-51v-5h51Z"/><rect class="cls-2" x="86.07" y="142.31" width="51" height="5"/><rect class="cls-2" x="86.07" y="156.31" width="51" height="6"/><rect class="cls-2" x="86.07" y="171.31" width="51" height="5"/><rect class="cls-2" x="86.07" y="185.31" width="51" height="6"/><rect class="cls-2" x="86.07" y="200.31" width="51" height="5"/><rect class="cls-2" x="86.07" y="214.31" width="51" height="5"/><rect class="cls-2" x="86.07" y="228.31" width="51" height="6"/><rect class="cls-2" x="86.07" y="244.31" width="51" height="5"/><polygon class="cls-1" points="98.07 135.31 98.07 132.63 98.07 116.31 89.07 116.31 89.07 132.63 89.07 135.31 98.07 135.31"/><path class="cls-1" d="M734.07,132.31v-14h-9v14h-5v-23h-9v23h-20v151h79v-151Zm0,139h-7v-9h7Zm0-13h-7v-9h7Zm0-12h-7v-10h7Zm0-14h-7v-9h7Zm0-13h-7v-9h7Zm0-12h-7v-9h7Zm0-13h-7v-9h7Zm0-12h-7v-9h7Zm0-13h-7v-9h7Zm0-13h-7v-9h7Zm15,115h-8v-9h8Zm0-13h-8v-9h8Zm0-12h-8v-10h8Zm0-14h-8v-9h8Zm0-13h-8v-9h8Zm0-12h-8v-9h8Zm0-13h-8v-9h8Zm0-12h-8v-9h8Zm0-13h-8v-9h8Zm0-13h-8v-9h8Z"/><rect class="cls-2" x="741.07" y="147.31" width="8" height="9"/><rect class="cls-2" x="741.07" y="160.31" width="8" height="9"/><rect class="cls-2" x="741.07" y="173.31" width="8" height="9"/><rect class="cls-2" x="741.07" y="185.31" width="8" height="9"/><rect class="cls-2" x="741.07" y="198.31" width="8" height="9"/><rect class="cls-2" x="741.07" y="210.31" width="8" height="9"/><rect class="cls-2" x="741.07" y="223.31" width="8" height="9"/><rect class="cls-2" x="741.07" y="236.31" width="8" height="10"/><rect class="cls-2" x="741.07" y="249.31" width="8" height="9"/><rect class="cls-2" x="741.07" y="262.31" width="8" height="9"/><rect class="cls-2" x="727.07" y="147.31" width="7" height="9"/><rect class="cls-2" x="727.07" y="160.31" width="7" height="9"/><rect class="cls-2" x="727.07" y="173.31" width="7" height="9"/><rect class="cls-2" x="727.07" y="185.31" width="7" height="9"/><rect class="cls-2" x="727.07" y="198.31" width="7" height="9"/><rect class="cls-2" x="727.07" y="210.31" width="7" height="9"/><rect class="cls-2" x="727.07" y="223.31" width="7" height="9"/><rect class="cls-2" x="727.07" y="236.31" width="7" height="10"/><rect class="cls-2" x="727.07" y="249.31" width="7" height="9"/><rect class="cls-2" x="727.07" y="262.31" width="7" height="9"/><rect class="cls-1" x="1174.64" y="45.42" width="89.03" height="238.01"/><rect class="cls-1" x="1358.14" y="62" width="84.18" height="225.06"/><rect class="cls-2" x="1365.07" y="89.31" width="9" height="32"/><rect class="cls-2" x="1379.07" y="89.31" width="9" height="32"/><rect class="cls-2" x="1410.07" y="89.31" width="9" height="32"/><rect class="cls-2" x="1426.07" y="89.31" width="10" height="32"/><rect class="cls-2" x="1365.07" y="128.31" width="9" height="34"/><rect class="cls-2" x="1396.07" y="128.31" width="9" height="34"/><rect class="cls-2" x="1410.07" y="128.31" width="9" height="34"/><rect class="cls-2" x="1365.07" y="169.31" width="9" height="32"/><rect class="cls-2" x="1379.07" y="169.31" width="9" height="32"/><rect class="cls-2" x="1396.07" y="169.31" width="9" height="32"/><rect class="cls-2" x="1426.07" y="169.31" width="10" height="32"/><rect class="cls-2" x="1365.07" y="209.31" width="9" height="30"/><rect class="cls-2" x="1396.07" y="209.31" width="9" height="30"/><rect class="cls-2" x="1410.07" y="209.31" width="9" height="30"/><rect class="cls-2" x="1426.07" y="209.31" width="10" height="30"/><rect class="cls-1" x="1274.57" y="100.26" width="70.25" height="186.8"/><rect class="cls-2" x="1287.07" y="123.31" width="5" height="28"/><rect class="cls-2" x="1299.07" y="123.31" width="6" height="28"/><rect class="cls-2" x="1312.07" y="123.31" width="5" height="28"/><rect class="cls-2" x="1325.07" y="123.31" width="6" height="28"/><rect class="cls-2" x="1287.07" y="158.31" width="5" height="27"/><rect class="cls-2" x="1299.07" y="158.31" width="6" height="27"/><rect class="cls-2" x="1312.07" y="158.31" width="5" height="27"/><rect class="cls-2" x="1325.07" y="158.31" width="6" height="27"/><rect class="cls-2" x="1287.07" y="189.31" width="5" height="27"/><rect class="cls-2" x="1299.07" y="189.31" width="6" height="27"/><rect class="cls-2" x="1312.07" y="189.31" width="5" height="27"/><rect class="cls-2" x="1325.07" y="189.31" width="6" height="27"/><rect class="cls-2" x="1287.07" y="223.31" width="5" height="28"/><rect class="cls-2" x="1299.07" y="223.31" width="6" height="28"/><rect class="cls-2" x="1312.07" y="223.31" width="5" height="28"/><rect class="cls-2" x="1325.07" y="223.31" width="6" height="28"/><rect class="cls-1" x="1453.53" y="43.6" width="69.04" height="243.46"/><rect class="cls-2" x="1493.73" y="58.14" width="17.94" height="5.45"/><rect class="cls-2" x="1464.43" y="58.14" width="19.99" height="5.45"/><rect class="cls-2" x="1464.43" y="69.04" width="19.99" height="5.45"/><rect class="cls-2" x="1493.73" y="69.04" width="17.94" height="5.45"/><rect class="cls-2" x="1464.43" y="90.84" width="19.99" height="5.45"/><rect class="cls-2" x="1493.73" y="90.84" width="17.94" height="5.45"/><rect class="cls-2" x="1464.43" y="101.74" width="19.99" height="5.45"/><rect class="cls-2" x="1493.73" y="101.74" width="17.94" height="5.45"/><rect class="cls-2" x="1464.43" y="112.64" width="19.99" height="5.45"/><rect class="cls-2" x="1493.73" y="112.64" width="17.94" height="5.45"/><rect class="cls-2" x="1464.43" y="123.55" width="19.99" height="5.45"/><rect class="cls-2" x="1493.73" y="123.55" width="17.94" height="5.45"/><rect class="cls-2" x="1464.43" y="134.45" width="19.99" height="5.45"/><rect class="cls-2" x="1493.73" y="134.45" width="17.94" height="5.45"/><rect class="cls-2" x="1464.43" y="145.35" width="19.99" height="5.45"/><rect class="cls-2" x="1493.73" y="145.35" width="17.94" height="5.45"/><rect class="cls-2" x="1493.73" y="156.25" width="17.94" height="5.45"/><rect class="cls-2" x="1464.43" y="156.25" width="19.99" height="5.45"/><rect class="cls-2" x="1493.73" y="167.15" width="17.94" height="5.45"/><rect class="cls-2" x="1464.43" y="167.15" width="19.99" height="5.45"/><rect class="cls-2" x="1464.43" y="188.95" width="19.99" height="5.45"/><rect class="cls-2" x="1493.73" y="188.95" width="17.94" height="5.45"/><rect class="cls-2" x="1464.43" y="199.85" width="19.99" height="5.45"/><rect class="cls-2" x="1493.73" y="199.85" width="17.94" height="5.45"/><rect class="cls-2" x="1464.43" y="210.75" width="19.99" height="5.45"/><rect class="cls-2" x="1493.73" y="210.75" width="17.94" height="5.45"/><rect class="cls-2" x="1464.43" y="232.56" width="19.99" height="5.45"/><rect class="cls-2" x="1493.73" y="232.56" width="17.94" height="5.45"/><rect class="cls-2" x="1464.43" y="243.46" width="19.99" height="5.45"/><rect class="cls-2" x="1493.73" y="243.46" width="17.94" height="5.45"/><rect class="cls-2" x="1464.43" y="254.36" width="19.99" height="5.45"/><rect class="cls-2" x="1493.73" y="254.36" width="17.94" height="5.45"/><rect class="cls-2" x="1183.07" y="76.31" width="12" height="13"/><rect class="cls-2" x="1203.07" y="76.31" width="10" height="13"/><rect class="cls-2" x="1241.07" y="76.31" width="11" height="13"/><rect class="cls-2" x="1183.07" y="94.31" width="12" height="13"/><rect class="cls-2" x="1203.07" y="94.31" width="10" height="13"/><rect class="cls-2" x="1223.07" y="94.31" width="11" height="13"/><rect class="cls-2" x="1241.07" y="94.31" width="11" height="13"/><rect class="cls-2" x="1203.07" y="112.31" width="10" height="13"/><rect class="cls-2" x="1223.07" y="112.31" width="11" height="13"/><rect class="cls-2" x="1241.07" y="112.31" width="11" height="13"/><rect class="cls-2" x="1183.07" y="130.31" width="12" height="14"/><rect class="cls-2" x="1203.07" y="130.31" width="10" height="14"/><rect class="cls-2" x="1241.07" y="130.31" width="11" height="14"/><rect class="cls-2" x="1183.07" y="149.31" width="12" height="13"/><rect class="cls-2" x="1203.07" y="149.31" width="10" height="13"/><rect class="cls-2" x="1223.07" y="149.31" width="11" height="13"/><rect class="cls-2" x="1241.07" y="149.31" width="11" height="13"/><rect class="cls-2" x="1203.07" y="167.31" width="10" height="13"/><rect class="cls-2" x="1223.07" y="167.31" width="11" height="13"/><rect class="cls-2" x="1241.07" y="167.31" width="11" height="13"/><rect class="cls-2" x="1183.07" y="185.31" width="12" height="13"/><rect class="cls-2" x="1223.07" y="185.31" width="11" height="13"/><rect class="cls-2" x="1241.07" y="185.31" width="11" height="13"/><rect class="cls-2" x="1183.07" y="203.31" width="12" height="13"/><rect class="cls-2" x="1203.07" y="203.31" width="10" height="13"/><rect class="cls-2" x="1223.07" y="203.31" width="11" height="13"/><rect class="cls-2" x="1241.07" y="203.31" width="11" height="13"/><rect class="cls-2" x="1095.07" y="239.31" width="12" height="14"/><rect class="cls-1" x="1530.74" y="148.98" width="79.94" height="138.08"/><rect class="cls-2" x="1581.07" y="164.31" width="7" height="9"/><rect class="cls-2" x="1581.07" y="176.31" width="7" height="9"/><rect class="cls-2" x="1581.07" y="189.31" width="7" height="9"/><rect class="cls-2" x="1581.07" y="201.31" width="7" height="9"/><rect class="cls-2" x="1581.07" y="214.31" width="7" height="9"/><rect class="cls-2" x="1581.07" y="227.31" width="7" height="9"/><rect class="cls-2" x="1581.07" y="239.31" width="7" height="10"/><rect class="cls-2" x="1581.07" y="253.31" width="7" height="9"/><rect class="cls-2" x="1552.07" y="164.31" width="8" height="9"/><rect class="cls-2" x="1552.07" y="176.31" width="8" height="9"/><rect class="cls-2" x="1552.07" y="189.31" width="8" height="9"/><rect class="cls-2" x="1552.07" y="201.31" width="8" height="9"/><rect class="cls-2" x="1552.07" y="214.31" width="8" height="9"/><rect class="cls-2" x="1552.07" y="227.31" width="8" height="9"/><rect class="cls-2" x="1552.07" y="239.31" width="8" height="10"/><rect class="cls-2" x="1552.07" y="253.31" width="8" height="9"/><rect class="cls-2" x="1567.07" y="164.31" width="7" height="9"/><rect class="cls-2" x="1567.07" y="176.31" width="7" height="9"/><rect class="cls-2" x="1567.07" y="189.31" width="7" height="9"/><rect class="cls-2" x="1567.07" y="201.31" width="7" height="9"/><rect class="cls-2" x="1567.07" y="214.31" width="7" height="9"/><rect class="cls-2" x="1567.07" y="227.31" width="7" height="9"/><rect class="cls-2" x="1567.07" y="239.31" width="7" height="10"/><rect class="cls-2" x="1567.07" y="253.31" width="7" height="9"/><path class="cls-1" d="M1152.07,80.31v-36h-23v-21h-7v21h-23v36h-13v207h77v-207Zm-16-24h7v15h-7Zm-14,0h7v15h-7Zm-15,0h7v15h-7Zm7,200h-7v-15h7Zm0-26h-7v-14h7Zm0-25h-7v-14h7Zm0-25h-7v-15h7Zm0-25h-7v-15h7Zm0-27h-7v-14h7Zm0-25h-7v-14h7Zm15,153h-7v-15h7Zm0-26h-7v-14h7Zm0-25h-7v-14h7Zm0-25h-7v-15h7Zm0-25h-7v-15h7Zm0-27h-7v-14h7Zm0-25h-7v-14h7Zm14,153h-7v-15h7Zm0-26h-7v-14h7Zm0-25h-7v-14h7Zm0-25h-7v-15h7Zm0-25h-7v-15h7Zm0-27h-7v-14h7Zm0-25h-7v-14h7Z"/><rect class="cls-2" x="1107.07" y="89.31" width="7" height="14"/><rect class="cls-2" x="1122.07" y="89.31" width="7" height="14"/><rect class="cls-2" x="1136.07" y="89.31" width="7" height="14"/><rect class="cls-2" x="1107.07" y="114.31" width="7" height="14"/><rect class="cls-2" x="1122.07" y="114.31" width="7" height="14"/><rect class="cls-2" x="1136.07" y="114.31" width="7" height="14"/><rect class="cls-2" x="1107.07" y="140.31" width="7" height="15"/><rect class="cls-2" x="1122.07" y="140.31" width="7" height="15"/><rect class="cls-2" x="1136.07" y="140.31" width="7" height="15"/><rect class="cls-2" x="1107.07" y="165.31" width="7" height="15"/><rect class="cls-2" x="1122.07" y="165.31" width="7" height="15"/><rect class="cls-2" x="1136.07" y="165.31" width="7" height="15"/><rect class="cls-2" x="1107.07" y="191.31" width="7" height="14"/><rect class="cls-2" x="1122.07" y="191.31" width="7" height="14"/><rect class="cls-2" x="1136.07" y="191.31" width="7" height="14"/><rect class="cls-2" x="1107.07" y="216.31" width="7" height="14"/><rect class="cls-2" x="1122.07" y="216.31" width="7" height="14"/><rect class="cls-2" x="1136.07" y="216.31" width="7" height="14"/><rect class="cls-2" x="1107.07" y="241.31" width="7" height="15"/><rect class="cls-2" x="1122.07" y="241.31" width="7" height="15"/><rect class="cls-2" x="1136.07" y="241.31" width="7" height="15"/><rect class="cls-2" x="1107.07" y="56.31" width="7" height="15"/><rect class="cls-2" x="1122.07" y="56.31" width="7" height="15"/><rect class="cls-2" x="1136.07" y="56.31" width="7" height="15"/><path class="cls-1" d="M1059.07,156.31v-31h6.26c0-18-13.26-32.52-31.26-34.75V73.31h-7V90.37c-16,1.4-32,16.94-32,34.94h5v31h-15v25.3c-6-9.38-15-15.85-27-16.75V153.31h-8v11.74c-16,2.24-29.48,17.26-29.48,35.26h4.48v85h70v-3h79v-126Zm-48-1v-27h5v27Zm21,0h-5v-27h5Zm11,0v-27h6v27Zm-102,91h-5v-27h5Zm17,0h-6v-27h6Zm16,0h-6v-27h6Zm42,0h-5v-27h5Zm0-46h-5v-26h5Zm16,46h-5v-27h5Zm0-46h-5v-26h5Zm17,46h-6v-27h6Zm0-46h-6v-26h6Z"/><rect class="cls-2" x="1011.07" y="128.31" width="5" height="27"/><polygon class="cls-2" points="1027.07 132.63 1027.07 155.31 1032.07 155.31 1032.07 128.31 1027.07 128.31 1027.07 132.63"/><rect class="cls-2" x="1043.07" y="128.31" width="6" height="27"/><rect class="cls-2" x="1011.07" y="174.31" width="5" height="26"/><rect class="cls-2" x="1027.07" y="174.31" width="5" height="26"/><rect class="cls-2" x="1043.07" y="174.31" width="6" height="26"/><rect class="cls-2" x="936.07" y="219.31" width="5" height="27"/><rect class="cls-2" x="952.07" y="219.31" width="6" height="27"/><rect class="cls-2" x="968.07" y="219.31" width="6" height="27"/><rect class="cls-2" x="1011.07" y="219.31" width="5" height="27"/><rect class="cls-2" x="1027.07" y="219.31" width="5" height="27"/><rect class="cls-2" x="1043.07" y="219.31" width="6" height="27"/><rect class="cls-1" x="852.07" y="153.31" width="61" height="129"/><rect class="cls-2" x="859.07" y="169.31" width="8" height="13"/><rect class="cls-2" x="885.07" y="169.31" width="8" height="13"/><rect class="cls-2" x="898.07" y="169.31" width="7" height="13"/><rect class="cls-2" x="859.07" y="189.31" width="8" height="12"/><rect class="cls-2" x="872.07" y="189.31" width="7" height="12"/><rect class="cls-2" x="885.07" y="189.31" width="8" height="12"/><rect class="cls-2" x="859.07" y="209.31" width="8" height="14"/><rect class="cls-2" x="885.07" y="209.31" width="8" height="14"/><rect class="cls-2" x="898.07" y="209.31" width="7" height="14"/><rect class="cls-2" x="859.07" y="230.31" width="8" height="14"/><rect class="cls-2" x="872.07" y="230.31" width="7" height="14"/><rect class="cls-2" x="898.07" y="230.31" width="7" height="14"/><rect class="cls-1" x="1790.07" y="164.31" width="54" height="118"/><rect class="cls-2" x="1832.07" y="178.31" width="7" height="13"/><rect class="cls-2" x="1808.07" y="178.31" width="7" height="13"/><rect class="cls-2" x="1797.07" y="178.31" width="6" height="13"/><rect class="cls-2" x="1832.07" y="196.31" width="7" height="13"/><rect class="cls-2" x="1819.07" y="196.31" width="7" height="13"/><rect class="cls-2" x="1808.07" y="196.31" width="7" height="13"/><rect class="cls-2" x="1832.07" y="214.31" width="7" height="14"/><rect class="cls-2" x="1808.07" y="214.31" width="7" height="14"/><rect class="cls-2" x="1797.07" y="214.31" width="6" height="14"/><rect class="cls-2" x="1832.07" y="234.31" width="7" height="13"/><rect class="cls-2" x="1819.07" y="234.31" width="7" height="13"/><rect class="cls-2" x="1797.07" y="234.31" width="6" height="13"/><path class="cls-1" d="M1744.07,183.31v-9h6.5c-.15-25-20.5-47.46-47.5-48.87V98.31h-7v27.27c-24,2.28-45.25,23.73-45.41,48.73h5.41v9h-35v99h158v-99Zm-72-7h56v7h-56Zm-35,71h-4v-19h4Zm0-28h-4v-18h4Zm19,28h-4v-19h4Zm18-28h-4v-18h4Zm18,28h-4v-19h4Zm0-28h-4v-18h4Zm18,28h-4v-19h4Zm18,0h-4v-19h4Zm0-28h-4v-18h4Zm18,0h-4v-18h4Zm19,28h-4v-19h4Zm0-28h-4v-18h4Z"/><rect class="cls-2" x="1633.07" y="201.31" width="4" height="18"/><rect class="cls-2" x="1688.07" y="201.31" width="4" height="18"/><rect class="cls-2" x="1742.07" y="201.31" width="4" height="18"/><rect class="cls-2" x="1761.07" y="201.31" width="4" height="18"/><rect class="cls-2" x="1633.07" y="228.31" width="4" height="19"/><rect class="cls-2" x="1652.07" y="228.31" width="4" height="19"/><rect class="cls-2" x="1688.07" y="228.31" width="4" height="19"/><rect class="cls-2" x="1706.07" y="228.31" width="4" height="19"/><rect class="cls-2" x="1724.07" y="201.31" width="4" height="18"/><rect class="cls-2" x="1724.07" y="228.31" width="4" height="19"/><rect class="cls-2" x="1670.07" y="201.31" width="4" height="18"/><rect class="cls-2" x="1761.07" y="228.31" width="4" height="19"/><rect class="cls-2" x="1672.07" y="176.31" width="56" height="7"/></g></svg>