<svg xmlns="http://www.w3.org/2000/svg" viewBox="0 0 926.79 524.54"><defs><style>.cls-1{isolation:isolate;}.cls-10,.cls-13,.cls-2{fill:none;stroke-linecap:round;}.cls-10,.cls-11,.cls-2,.cls-5,.cls-6,.cls-8{stroke:#1d1d1b;}.cls-10,.cls-11,.cls-13,.cls-2,.cls-5,.cls-6,.cls-8{stroke-miterlimit:10;}.cls-13,.cls-2,.cls-5,.cls-8{stroke-width:5px;}.cls-3{fill:#ff6328;}.cls-11,.cls-4{fill:#1d1d1b;}.cls-5{fill:#fbc44d;}.cls-6{fill:#f7eacd;}.cls-10,.cls-6{stroke-width:3.5px;}.cls-7{fill:#ffda80;}.cls-7,.cls-9{opacity:0.5;mix-blend-mode:multiply;}.cls-8,.cls-9{fill:#706f6f;}.cls-11{stroke-width:0.77px;}.cls-12{fill:#f6f6f6;}.cls-13{stroke:#f6f6f6;}</style></defs><title>OTOBOTO for export svg</title><g class="cls-1"><g id="bar"><polyline class="cls-2" points="292.13 456.85 357.38 456.85 367.79 456.85 556.09 456.85 567.2 456.85 626.33 456.85"/><path class="cls-3" d="M455,271.81V249.69a8.57,8.57,0,1,1,8.38,0v22.12Z"/><path class="cls-4" d="M459.23,235.64a6.57,6.57,0,0,1,2.19,12.76v21.41H457V248.4a6.57,6.57,0,0,1,2.19-12.76m0-4A10.57,10.57,0,0,0,453,250.78v23h12.38v-23a10.57,10.57,0,0,0-6.19-19.14Z"/><path class="cls-5" d="M554.38,359.31a95.16,95.16,0,0,0-190.31,0c0,.71,0,1.41,0,2.11h0V401a38.12,38.12,0,0,0,38.12,38.12H516.27A38.12,38.12,0,0,0,554.38,401V361.42h0C554.37,360.72,554.38,360,554.38,359.31Z"/><path class="cls-6" d="M524.15,375.14H395.3C376.61,373.33,379,350.88,379,350.88h0c0-40.53,37.06-73.26,82.32-72.21,43.61,1,78.09,33.71,78.09,73v.12S541.52,375.14,524.15,375.14Z"/><path class="cls-7" d="M554.78,361.42h0V401a38.12,38.12,0,0,1-38.11,38.12H479A38.12,38.12,0,0,0,517.14,401V361.42h0c0-.7,0-1.4,0-2.11A95.19,95.19,0,0,0,440.82,266a95.2,95.2,0,0,1,114,93.29C554.8,360,554.79,360.72,554.78,361.42Z"/><rect class="cls-8" x="545.82" y="375.14" width="37.35" height="81.71" rx="18.67" ry="18.67"/><path class="cls-9" d="M583.16,393.82v44.36a18.66,18.66,0,0,1-25.92,17.2,18.76,18.76,0,0,0,11.42-17.2V393.82a18.64,18.64,0,0,0-5.48-13.19,18.9,18.9,0,0,0-5.94-4,18.6,18.6,0,0,1,20.44,4A18.64,18.64,0,0,1,583.16,393.82Z"/><rect class="cls-8" x="335.99" y="375.14" width="37.35" height="81.71" rx="18.67" ry="18.67"/><path class="cls-9" d="M373.34,393.82v44.36a18.66,18.66,0,0,1-25.92,17.2,18.76,18.76,0,0,0,11.42-17.2V393.82a18.64,18.64,0,0,0-5.48-13.19,18.9,18.9,0,0,0-5.94-4,18.6,18.6,0,0,1,20.44,4A18.64,18.64,0,0,1,373.34,393.82Z"/><path class="cls-10" d="M452.3,345.12s1.61,6.9,6.81,6.9,7-6.9,7-6.9"/><ellipse class="cls-11" cx="505.57" cy="332.38" rx="3.96" ry="6.34"/><circle class="cls-12" cx="506.3" cy="328.33" r="1.44"/><ellipse class="cls-11" cx="412.85" cy="332.38" rx="3.96" ry="6.34"/><circle class="cls-12" cx="413.58" cy="328.33" r="1.44"/><polyline class="cls-10" points="524.02 386.1 483.1 386.1 471.6 399.6"/><polyline class="cls-10" points="395.35 386.1 436.27 386.1 447.77 399.6"/><polyline class="cls-2" points="604.08 432.78 661.25 432.78 661.25 432.78"/><polyline class="cls-2" points="221.81 432.78 320.72 432.78 320.72 432.78"/><polyline class="cls-2" points="690.26 432.78 706.77 432.78 716.68 432.78"/><polyline class="cls-2" points="583.36 414.78 645.18 414.78 755.69 414.78"/><polyline class="cls-2" points="167.02 414.78 224.2 414.78 334.71 414.78"/><path class="cls-12" d="M830.84,115a2.61,2.61,0,0,1-2.56-2.32,20.1,20.1,0,0,0-31.8-13.63,31.05,31.05,0,1,0-60,12.44,2.57,2.57,0,0,1-2.39,3.51h-20a2.5,2.5,0,0,0-2.5,2.5h0a2.5,2.5,0,0,0,2.5,2.5H848.8a2.5,2.5,0,0,0,2.5-2.5h0a2.5,2.5,0,0,0-2.5-2.5Z"/><path class="cls-12" d="M180.21,330.56a2,2,0,0,0,1.95-1.77,15.35,15.35,0,0,1,24.28-10.4,23.7,23.7,0,1,1,45.81,9.49,2,2,0,0,0,1.83,2.68h15.27a1.92,1.92,0,0,1,1.91,1.91h0a1.92,1.92,0,0,1-1.91,1.91H166.5a1.92,1.92,0,0,1-1.91-1.91h0a1.92,1.92,0,0,1,1.91-1.91Z"/><path class="cls-12" d="M148.6,165H135.44a2.82,2.82,0,0,1-2.77-2.2A22.51,22.51,0,0,0,89,161.38,15,15,0,0,0,62,168a1.74,1.74,0,0,0,1.7,2H148.6a2.5,2.5,0,0,0,2.5-2.5h0A2.5,2.5,0,0,0,148.6,165Z"/><path class="cls-12" d="M669.05,258.69H679A2.12,2.12,0,0,0,681,257a16.93,16.93,0,0,1,32.85-1,11.28,11.28,0,0,1,20.26,5,1.3,1.3,0,0,1-1.27,1.5H669.05a1.88,1.88,0,0,1-1.88-1.88h0A1.89,1.89,0,0,1,669.05,258.69Z"/><line class="cls-13" x1="141.31" y1="183.03" x2="181.97" y2="183.03"/><line class="cls-13" x1="755.69" y1="138.95" x2="819.43" y2="138.95"/></g></g></svg>