<svg xmlns="http://www.w3.org/2000/svg" viewBox="0 0 82.08 82.08"><defs><style>.cls-1{fill:#ffda80;}.cls-2{fill:#14c6c6;stroke-width:2px;}.cls-2,.cls-3{stroke:#1d1d1b;stroke-miterlimit:10;}.cls-3,.cls-4{fill:#fff;}.cls-3{stroke-width:2px;}</style></defs><title>14</title><g id="bar"><circle class="cls-1" cx="41.04" cy="41.04" r="41.04"/><rect class="cls-2" x="25.47" y="20.41" width="38.88" height="10.05" rx="4.4" ry="4.4"/><rect class="cls-2" x="25.47" y="30.84" width="38.88" height="10.05" rx="4.4" ry="4.4"/><rect class="cls-2" x="25.47" y="41.26" width="38.88" height="10.05" rx="4.4" ry="4.4"/><rect class="cls-2" x="25.47" y="51.69" width="38.88" height="10.05" rx="4.4" ry="4.4"/><path class="cls-3" d="M31.17,27.33a18.42,18.42,0,1,0,18.4,18.42A18.42,18.42,0,0,0,31.17,27.33Z"/><path class="cls-4" d="M31.16,62.15a16.41,16.41,0,1,1,16.4-16.41A16.42,16.42,0,0,1,31.16,62.15Zm-1.74-9.93V43.75a1,1,0,1,0-2,0v9.37a1,1,0,0,0,.94,1c2.65,0,5.29.06,7.93,0a4.12,4.12,0,0,0,3.83-2.58A6,6,0,0,0,40.64,49V39.28a2.18,2.18,0,0,0,0-.44,1,1,0,0,0-1.89,0,2.48,2.48,0,0,0,0,.47q0,4.77,0,9.53c0,.28,0,.56,0,.84a2.53,2.53,0,0,1-2.72,2.52H29.42ZM24,40.05c2.26,0,4.48,0,6.7,0a2.08,2.08,0,0,1,2.14,2.34v5.72a1.73,1.73,0,0,0,.08.56.94.94,0,0,0,1.08.59,1,1,0,0,0,.79-1c0-2.06,0-4.13,0-6.19a4,4,0,0,0-3.08-3.82,6.3,6.3,0,0,0-1.49-.16c-2.33,0-4.66,0-7,0-.84,0-1.19.36-1.19,1.21V53a1.88,1.88,0,0,0,.06.53.94.94,0,0,0,.91.65.92.92,0,0,0,.92-.64,1.94,1.94,0,0,0,.06-.59q0-6.21,0-12.41Z"/><path d="M29.42,52.22h6.51a2.53,2.53,0,0,0,2.72-2.52c0-.28,0-.56,0-.84q0-4.76,0-9.53a2.48,2.48,0,0,1,0-.47,1,1,0,0,1,1.89,0,2.18,2.18,0,0,1,0,.44V49a6,6,0,0,1-.47,2.55,4.12,4.12,0,0,1-3.83,2.58c-2.64.08-5.28,0-7.93,0a1,1,0,0,1-.94-1V43.75a1,1,0,1,1,2,0v8.47Z"/><path d="M24,40.05v.47q0,6.19,0,12.41a1.94,1.94,0,0,1-.06.59.92.92,0,0,1-.92.64.94.94,0,0,1-.91-.65,1.88,1.88,0,0,1-.06-.53V39.3c0-.85.35-1.21,1.19-1.21,2.33,0,4.66,0,7,0a6.3,6.3,0,0,1,1.49.16,4,4,0,0,1,3.08,3.82c0,2.06,0,4.13,0,6.19a1,1,0,0,1-.79,1A.94.94,0,0,1,33,48.69a1.73,1.73,0,0,1-.08-.56V42.41a2.08,2.08,0,0,0-2.14-2.34C28.51,40,26.29,40.05,24,40.05Z"/></g></svg>