<svg xmlns="http://www.w3.org/2000/svg" viewBox="0 0 25.09 12.56"><defs><style>.cls-1,.cls-2{fill:#706f6f;}.cls-2{stroke:#f6f6f6;stroke-linecap:round;stroke-miterlimit:10;stroke-width:1.37px;}.cls-3{fill:#fff;}</style></defs><title>OTOBOTO divided to screens16-33</title><g id="bar"><path class="cls-1" d="M25.09,12.54H0a12.55,12.55,0,0,1,25.09,0Z"/><path class="cls-2" d="M3.47,8.77a9,9,0,0,1,.89-1.65A9.87,9.87,0,0,1,7,4.49a10.13,10.13,0,0,1,1.65-.9A10,10,0,0,1,10.47,3a9.72,9.72,0,0,1,2-.2h.22a9.8,9.8,0,0,1,2,.2,10.11,10.11,0,0,1,1.82.56,9.82,9.82,0,0,1,1.66.9,10.83,10.83,0,0,1,1.44,1.19,9.62,9.62,0,0,1,1.18,1.44,9.73,9.73,0,0,1,.9,1.65"/><path class="cls-3" d="M14.34,12.56H12.87L10.81,8.39A.65.65,0,1,1,12,7.82Z"/></g></svg>