<svg xmlns="http://www.w3.org/2000/svg" xmlns:xlink="http://www.w3.org/1999/xlink" viewBox="0 0 34.36 31.5"><defs><style>.cls-1,.cls-4{fill:none;}.cls-2{clip-path:url(#clip-path);}.cls-3{fill:#f6f6f6;}.cls-4{stroke:#1d1d1b;stroke-linecap:round;stroke-miterlimit:10;}</style><clipPath id="clip-path"><rect class="cls-1" x="-1265.35" y="-551.63" width="750" height="1334.03"/></clipPath></defs><title>48-58</title><g id="screen7"><g class="cls-2"><rect class="cls-3" x="-1826.66" y="-551.63" width="1922.99" height="1331.56"/></g></g><g id="screen11"><path class="cls-4" d="M22.07,18.62a5.52,5.52,0,0,1-5.63,2.62,5.43,5.43,0,0,1-2-.73,5.52,5.52,0,0,1-2.62-5.63,5.43,5.43,0,0,1,.73-2,5.52,5.52,0,0,1,5.63-2.62,5.43,5.43,0,0,1,2,.73,5.49,5.49,0,0,1,1.63,1.49"/><path class="cls-4" d="M22.61,10.24l-.18,1.18-.19,1.18a.42.42,0,0,1-.16.26.41.41,0,0,1-.29.07l-1.18-.19-1.18-.19"/></g></svg>