<svg xmlns="http://www.w3.org/2000/svg" xmlns:xlink="http://www.w3.org/1999/xlink" viewBox="0 0 93.35 91.41"><defs><style>.cls-1{fill:none;}.cls-2{isolation:isolate;}.cls-3{fill:#fff;}.cls-3,.cls-4{stroke:#1d1d1b;stroke-miterlimit:10;stroke-width:2px;}.cls-4,.cls-6{fill:#ffda80;}.cls-5{fill:#dadada;}.cls-5,.cls-6{opacity:0.7;mix-blend-mode:multiply;}.cls-7{clip-path:url(#clip-path);}.cls-8{fill:#f6f6f6;}</style><clipPath id="clip-path"><rect class="cls-1" x="-798.66" y="-551.63" width="750" height="1334.03"/></clipPath></defs><title>48-58</title><g class="cls-2"><g id="web1"><rect class="cls-3" x="18.57" y="57.04" width="10.69" height="21.97" rx="5.34" ry="5.34"/><rect class="cls-3" x="64.09" y="57.04" width="10.69" height="21.97" rx="5.34" ry="5.34"/><path class="cls-4" d="M77.38,40.37H16l3.58-17.52a12.17,12.17,0,0,1,11.93-9.74H61.87A12.18,12.18,0,0,1,73.8,22.85Z"/><path class="cls-5" d="M74.52,62.38V73.67a5.36,5.36,0,0,1-8,4.63,5.34,5.34,0,0,0,2.67-4.63V62.38a5.37,5.37,0,0,0-1.56-3.78,5.45,5.45,0,0,0-1.11-.85,5.35,5.35,0,0,1,8,4.63Z"/><path class="cls-3" d="M69,40H24.31l2.6-12.76a8.88,8.88,0,0,1,8.7-7.1H57.74a8.87,8.87,0,0,1,8.69,7.1Z"/><path class="cls-4" d="M19.88,39.18H73.47a10,10,0,0,1,10,10V62.49A5.45,5.45,0,0,1,78,67.94H15.35A5.45,5.45,0,0,1,9.9,62.49V49.16A10,10,0,0,1,19.88,39.18Z"/><circle class="cls-3" cx="68.95" cy="53.61" r="5.56"/><path class="cls-6" d="M76.26,39.66H67.83L65,22.8c-.32-1.59-7.22-1.32-8.25-2.43-2.65-2.83-1.95-7.26-6.11-7.26l10.1-.71a12.16,12.16,0,0,1,11.93,9.75Z"/><path class="cls-5" d="M69,38.73H62L59.34,26c-.39-1.87-1.43-4.55-2.58-5.6-1.39-1.26-3-.7-5.34-.7l6.25-.34c4.22,0,7.83,2.51,8.68,6.64Z"/><path class="cls-6" d="M82.75,49.16V62.5A5.45,5.45,0,0,1,77.3,68H68.62a5.45,5.45,0,0,0,5.46-5.45V49.16a10,10,0,0,0-10-10h8.68A10,10,0,0,1,82.75,49.16Z"/><path class="cls-5" d="M74.51,53.61A5.56,5.56,0,0,1,69,59.17a5.34,5.34,0,0,1-2.43-.57,5.54,5.54,0,0,0,0-10A5.34,5.34,0,0,1,69,48.05,5.56,5.56,0,0,1,74.51,53.61Z"/><circle class="cls-3" cx="24.4" cy="53.61" r="5.56"/></g><g id="screen7"><g class="cls-7"><rect class="cls-8" x="-1359.97" y="-551.63" width="1922.99" height="1331.56"/></g></g></g></svg>