<svg xmlns="http://www.w3.org/2000/svg" xmlns:xlink="http://www.w3.org/1999/xlink" viewBox="0 0 28.75 27"><defs><style>.cls-1{fill:none;}.cls-2{clip-path:url(#clip-path);}.cls-3{fill:#f6f6f6;}.cls-4,.cls-5,.cls-6{fill:#706f6f;}.cls-4,.cls-6{stroke:#706f6f;stroke-width:2px;}.cls-4{stroke-miterlimit:10;}.cls-6{stroke-linecap:round;stroke-linejoin:round;}</style><clipPath id="clip-path"><rect class="cls-1" x="-1239.46" y="-395.3" width="750" height="1334.03"/></clipPath></defs><title>48-58</title><g id="screen7"><g class="cls-2"><rect class="cls-3" x="-1800.78" y="-395.3" width="1922.99" height="1331.56"/></g></g><g id="screen9"><line class="cls-4" x1="7.27" y1="13.5" x2="20.72" y2="13.5"/><path class="cls-5" d="M19,10.17l4.24,2.45a1,1,0,0,1,0,1.76L19,16.83A1,1,0,0,1,17.43,16v-4.9A1,1,0,0,1,19,10.17Z"/><path class="cls-5" d="M9.65,16.83,5.4,14.38a1,1,0,0,1,0-1.76l4.25-2.45a1,1,0,0,1,1.53.88V16A1,1,0,0,1,9.65,16.83Z"/><line class="cls-6" x1="24" y1="6.02" x2="24" y2="20.98"/><line class="cls-6" x1="4.75" y1="6.02" x2="4.75" y2="20.98"/></g></svg>